<svg id="eNLeoGY6u4l1" xmlns="http://www.w3.org/2000/svg" xmlns:xlink="http://www.w3.org/1999/xlink" viewBox="0 0 1814.68 1305.64" shape-rendering="geometricPrecision" text-rendering="geometricPrecision"><g><rect width="353.61" height="234.97" rx="6.34" ry="6.34" transform="matrix(.92939 0.369098-.369098 0.92939 1234.351753-.761346)" fill="#ececec"/><path d="M1327.16,410.73l104.89,190.89c1.72908,3.139093,5.428835,4.627356,8.85,3.56l210.87-65.95" transform="translate(-91.49-409.23)" fill="none" stroke="#e4e4e4" stroke-width="3" stroke-linecap="round" stroke-linejoin="round"/><line x1="1473.22" y1="346.14" x2="1420.85" y2="173.61" fill="none" stroke="#e4e4e4" stroke-width="3" stroke-linecap="round" stroke-linejoin="round"/><line x1="1150.26" y1="216.84" x2="1306.9" y2="131.12" fill="none" stroke="#e4e4e4" stroke-width="3" stroke-linecap="round" stroke-linejoin="round"/><rect width="494.18" height="328.38" rx="6.34" ry="6.34" transform="matrix(.988756-.149535 0.149535 0.988756 1230.019837 591.833178)" fill="#ececec"/><path d="M1324.67,1003l261,156.56c4.299164,2.577264,9.818684,1.770243,13.2-1.93L1807,929.53" transform="translate(-91.49-409.23)" fill="none" stroke="#e4e4e4" stroke-width="3" stroke-linecap="round" stroke-linejoin="round"/><line x1="1762.62" y1="842.52" x2="1577.92" y2="671.13" fill="none" stroke="#e4e4e4" stroke-width="3" stroke-linecap="round" stroke-linejoin="round"/><line x1="1281.72" y1="913.84" x2="1410.45" y2="700.08" fill="none" stroke="#e4e4e4" stroke-width="3" stroke-linecap="round" stroke-linejoin="round"/><path d="M723.74,1515.37L249.89,1345.62c-3.401731-1.280022-5.172557-5.029748-4-8.47L353,1013.91c.50714-1.646503,1.661529-3.016271,3.198309-3.795032s3.32403-.899664,4.951691-.334968L835,1179.53c3.406922,1.280107,5.178927,5.036757,4,8.48L731.89,1511.24c-.509558,1.644835-1.664295,3.012757-3.200291,3.79112s-3.321962.900639-4.949709.33888Z" transform="translate(-91.49-409.23)" fill="#ececec"/><path d="M357.05,1011l165.13,281c2.603219,4.584876,8.147322,6.605149,13.09,4.77L837,1182.41" transform="translate(-91.49-409.23)" fill="none" stroke="#e4e4e4" stroke-width="3" stroke-linecap="round" stroke-linejoin="round"/><line x1="633.63" y1="1105.65" x2="546" y2="848.77" fill="none" stroke="#e4e4e4" stroke-width="3" stroke-linecap="round" stroke-linejoin="round"/><line x1="156.02" y1="932.96" x2="377.69" y2="792.57" fill="none" stroke="#e4e4e4" stroke-width="3" stroke-linecap="round" stroke-linejoin="round"/><line x1="0" y1="1302.61" x2="1814.68" y2="1302.61" fill="none" stroke="#231f20" stroke-miterlimit="10"/><rect width="169.17" height="19.92" rx="9.09" ry="9.09" transform="translate(1453.28 1164.55)" fill="#011627"/><path d="M1681.73,1711.83h-96.91c-2.12806.001119-3.939954-1.54769-4.27-3.65l-17.61-114.48h134.91L1686,1708c-.24384,2.175956-2.080435,3.823299-4.27,3.83Z" transform="translate(-91.49-409.23)" fill="#253a41"/><path d="M1657.13,1535.86c0,0,104.94-42.5,87.76-198.67-.045842-.410571-.288521-.773188-.65059-.972127s-.798275-.209336-1.16941-.027873c-13.82,6.92-110.8,60.81-85.94,199.67Z" transform="translate(-91.49-409.23)" fill="#6838a0"/><path d="M1645.43,1573.78c0,0,37.4-129.67,62.56-155.89" transform="translate(-91.49-409.23)" fill="none" stroke="#310c5b" stroke-width="3" stroke-linecap="round" stroke-linejoin="round"/><path d="M1623.56,1538.45c0,0-40.81,14.47-65-21.88s-2.33-89.47-13.74-109-24-33.55-11.89-67.57s21.91-36.13,6.53-88.2s17.93-78.63,26.44-81s50-17.25,61.64,34-8.39,62,14.91,96.93s33.51,48.46,27,110.91s3.78,93.15-45.89,125.81Z" transform="translate(-91.49-409.23)" fill="#8536cf"/><path d="M1627.49,1573.78c0,0-30-274.37-37.12-287.42" transform="translate(-91.49-409.23)" fill="none" stroke="#310c5b" stroke-width="3" stroke-linecap="round" stroke-linejoin="round"/></g><g id="eNLeoGY6u4l22" transform="matrix(.984984-.172643 0.172643 0.984984-91.332917 40.333997)"><path d="M279.52,981.58c0,0-32.85,8.51-50.68-26.44c0,0-44-66.06-47.53-98.92c0,0,15-15.72,41.24-26.56c0,0,41.6,34.25,58.72,63.61c0,0,42.29,50.8-1.75,88.31Z" transform="translate(-91.49-409.23)" fill="#8536cf"/><path d="M175.83,849.23c0,0,5.6-19.34,39.62-29.12c0,0,5.59-2.57,7.1,9.55c0,0-23.18,9.09-41.24,26.56c0,0-4.31.24-5.48-6.99Z" transform="translate(-91.49-409.23)" fill="#4bb3fd"/><path d="M215.45,820.11c0,0-29.6-24.7-9-59c0,0-4.2-10.66-13.64,12.05s-18.87-38.79-30.58-32c0,0-5.59-1.74,7.52,29.89c0,0,.35,5.94-6.12,2.62c0,0-13.46-40.72-19.22-30.58c0,0-3.5,8,13.1,33.37c0,0-.52,3.15-3.49-.35s-14.68-30.4-18.7-26.21s12.76,30.43,12.76,30.43-.7,4.7-4.55,1-10.13-20.62-14.15-14.68s45.88,68.38,47.76,79.45c.03.1,7.43-17.55,38.31-25.99Z" transform="translate(-91.49-409.23)" fill="#ffc397"/></g><g><path d="M533.27,1043.1h-151.92c0,0-28,15.38-43.34,82s-5.13,136.54-17.71,190.13-6.06,134.22-20.5,187.81c0,0,17.7,33.55,52.66,26.1s42.4,2.79,56.38,7s48,0,75-14.45s83,13.51,103.46-10.25c.03.01-55.43-452.03-54.03-468.34Z" transform="translate(-91.49-409.23)" fill="#011627"/><path d="M279.52,981.58c33.21-7.1,95.31-61.51,95.31-61.51c16,50.91,6.52,95.76,6.52,95.76-29.36,25.4,0,27.27,0,27.27h151.92c24.82-11.3.7-32.39.7-32.39-21-26.91.35-85.28.35-85.28c9.09,21.67,66.76,86.33,95.42,37.74s4.19-121.28,4.19-121.28c-26.91,1.75-42.64,11.54-42.64,11.54-1.4,46.83-6.64,43.69-6.64,43.69-9.09-22-34.95-72.7-34.95-72.7-10.84-36-50.68-31.81-50.68-31.81c6.29,20.62,1.75,73.4-52.78,70.6s-48.24-73.74-48.24-73.74c-18.87-3.15-39.15,15.37-39.15,15.37-22,22.72-77.59,88.43-77.59,88.43s-62.32,32.62-1.74,88.31Z" transform="translate(-91.49-409.23)" fill="#8536cf"/><path d="M590.16,841.9c.339764-1.369452,1.27558-2.51445,2.55-3.12c7.2-3.37,32.73-14.91,36.33-10.52c4.19,5.13,4.89,13.63,4.89,13.63-14.931773.380682-29.554309,4.338094-42.64,11.54s-3.15-3.54-1.13-11.53Z" transform="translate(-91.49-409.23)" fill="#4bb3fd"/><path d="M359.61,1527.81c0,0-16,48.41-15.54,145.58c0,0-1.4,17,46.13,14.21c0,0,31.23-119,34.49-149.91c0,0-45.8-33.13-65.08-9.88Z" transform="translate(-91.49-409.23)" fill="#fdc19b"/><path d="M491.49,1518.85c0,0,12.89,107.24,29.43,175.74c0,0,34.72,2.8,49.63-3.26c0,0-.48-149.72-9.33-169.93c0,0-47.67-25.4-69.73-2.55Z" transform="translate(-91.49-409.23)" fill="#fdc19b"/><path d="M344.07,1673.39c0,0-18.64,22.83,0,26.56c0,0,37.75,11.65,49.63,14.91h31c0,0,11.62-.93-34.49-27.26-.01,0-44.98,3.26-46.14-14.21Z" transform="translate(-91.49-409.23)" fill="#4bb3fd"/><path d="M520.92,1694.59c0,0-4,13.52,0,20.27h85.28c0,0,12.59-8.85-35.65-23.53c0,0-17.94,5.83-49.63,3.26Z" transform="translate(-91.49-409.23)" fill="#4bb3fd"/><path d="M589.37,724.94L625.14,751c1.869128,1.360165,2.35945,3.938731,1.12,5.89l-46,72.12c-1.026482,1.619959-2.990978,2.378968-4.84,1.87l-41.28-11.49c-1.309893-.368931-2.37389-1.325757-2.8793-2.58928s-.394808-2.690188.2993-3.86072l51.45-86.72c.62682-1.068296,1.679325-1.818723,2.893589-2.063103s2.475126.040463,3.466411.783103Z" transform="translate(-91.49-409.23)" fill="#011627"/><path d="M598.6,836.11c0,0-1-9.94-4.51-12.57s-6.41-13.8-4.6-18.87c0,0-22.84,3-22-1.75s15.53-6.11,15.53-6.11-22.17,1.74-19-3.15s3.67-4.39,22-4.55c0,0,4.89,0,7.69,3.33c0,0-6.1-9.61-12.58-13.46s-18.88-2.8-12.76-10.14s27.63,10.16,29.21,12.59s1.23-15.38-2.79-16.78-16.79-10.48-10.79-14.15s19.92,9.43,21.85,12.75s0,15.73,1.39,16.43s7.69-7.86,10-5.24s7.51,36.82,5.94,52.84c-.08,0-16.58,4.14-24.58,8.83Z" transform="translate(-91.49-409.23)" fill="#ffc397"/><path d="M468.5,1043.1c0,0-4.2,395.08,9.32,466.2" transform="translate(-91.49-409.23)" fill="none" stroke="#243940" stroke-width="3" stroke-linecap="round" stroke-linejoin="round"/><circle r="8.85" transform="translate(400.31 776.47)" fill="#253a41"/><circle r="8.85" transform="translate(397.05 660.67)" fill="#253a41"/><circle r="8.85" transform="translate(400.31 881.17)" fill="#253a41"/><circle r="8.85" transform="translate(403.57 1001.79)" fill="#253a41"/><path d="M288.84,909.12c0,0-5.35-5.6-7.57-15.85c0,0-6.17,11.65-2.44,20.27" transform="translate(-91.49-409.23)" fill="none" stroke="#310c5b" stroke-width="3" stroke-linecap="round" stroke-linejoin="round"/><path d="M320.08,849.93c0,0,29.05,46.68,70.21,32.72s60.54-6.7,75.07,2.61s33.56,5.33,37.37,0s23.79-25.1,67.59-14.87" transform="translate(-91.49-409.23)" fill="none" stroke="#f9cfd2" stroke-width="2" stroke-linecap="round" stroke-linejoin="round"/><path d="M584.65,897.12c0,0-2.68,16.89,0,22.48" transform="translate(-91.49-409.23)" fill="none" stroke="#310c5b" stroke-width="3" stroke-linecap="round" stroke-miterlimit="10"/><path d="M381.35,1015.83c0,0,8.65,3.17,28.19-15.83s10.84-41,8-47.66-22-3.84-23.41-7.34-9.66-24.06-16.89-16.4c.04,0,12.26,44.13,4.11,87.23Z" transform="translate(-91.49-409.23)" fill="#310c5b"/><path d="M391.72,626.94c0,0-48.93-22.72-41.24,45.06c0,0-47.19,17.82-8.74,51.38c0,0-8.39,38.09,30.76,23.76c0,0,26.21,57.48,59.76,3.23c0,0,5.24-24.9-6.29-30.14c0,0,7-12.23,2.8-24.46c0,0,13.91-4.2,4.68-17.48c0,0,17-11.88,14.9-26.91c0,0,25.85,5.59,38.44-.35c0,0,10.83,23.07,25.16,16.77c0,0,11.54,86.34-26.21,95.77c0,0,40.89,24.47,44-29.71c0,0,26.56-17.47,6.29-39.84c0,0,11.18-30.06-13.28-35.65c0,0,2.79-45.44-36.35-33.21c0,0-29.36-32.15-45.44-11.53.04.03-29.67-27.93-49.24,13.31Z" transform="translate(-91.49-409.23)" fill="#1b2f37"/><path d="M398,789.47l14-.36c0,0,4.54,1.4,3.15-5.94-.82133-4.144325-1.309556-8.347752-1.46-12.57s6.52-1.43,18.58-20.2c0,0,5.07-24.55-6.29-30.14c4.176398-7.447719,5.185294-16.261147,2.8-24.46s13.91-3.85,4.68-17.48c0,0,16.84-11.71,14.9-26.91c0,0,29.7,5.76,38.44-.35c0,0,10.48,22.72,25.16,16.77c0,0,12.23,84.41-26.21,95.77c0,0-4.43,2-4.78,2s-2,21,.58,22.6s17.45,4.41,17.45,4.41s14.9,65.6-46.14,70.66-54.86-73.8-54.86-73.8Z" transform="translate(-91.49-409.23)" fill="#ffbe9f"/><path d="M481,765.58c0,0-29,.7-41.36-13.28c0,0,1.91,24.66,40.63,22c.092692-2.917316.336352-5.827878.73-8.72Z" transform="translate(-91.49-409.23)" fill="#f9a575"/><path d="M476.13,681.47c0,0,22.71,41.94,1,32.85" transform="translate(-91.49-409.23)" fill="none" stroke="#7e4a2c" stroke-width="3" stroke-linecap="round" stroke-linejoin="round"/><path d="M447.12,681.47c0,0,5.59-4.37,15.9-3.32-.02,0-12.58-19.4-15.9,3.32Z" transform="translate(-91.49-409.23)" fill="#5f3b27"/><path d="M504.41,675.68c0,0-12.58-19.4-15.9,3.32c0,0,5.59-4.37,15.9-3.32" transform="translate(-91.49-409.23)" fill="#5f3b27"/><circle r="4.37" transform="translate(363.32 281.15)" fill="#1f0000"/><circle r="4.37" transform="translate(405.79 278.27)" fill="#1f0000"/><path d="M337.54,709.43c0,0,19.23,17.82,35.3,4.19s15.38-23.94,11.19-30.49-14-10.6-20.27-7.18-5.94,18.34,1.05,22.59s19.57,8.79,30.05,6s21-11.88,22.37-18.52s2.1-31.81-15.38-29.71s8.39,31.26,18.88,19.65c0,0,5.47-4.15,6.29-8.58" transform="translate(-91.49-409.23)" fill="none" stroke="#33494f" stroke-width="2" stroke-linecap="round" stroke-linejoin="round"/><path d="M387.17,757.28c0,0,20.28-9.76,17.13-23.39s-11.18-11.88-15.73-9.78-1.4,22.37,18.88,19.92s14.81-15.9,14.5-16.43-6.93-12.76-10.66-4.92.35,10.16,15.73,9.47" transform="translate(-91.49-409.23)" fill="none" stroke="#33494f" stroke-width="2" stroke-linecap="round" stroke-linejoin="round"/><path d="M352.92,670.43c0,0-33.11-8-25.12,21.43" transform="translate(-91.49-409.23)" fill="none" stroke="#1b2f37" stroke-width="2" stroke-linecap="round" stroke-linejoin="round"/><path d="M371.15,623.52c0,0-30-13.93-20.07,20.61" transform="translate(-91.49-409.23)" fill="none" stroke="#1b2f37" stroke-width="2" stroke-linecap="round" stroke-linejoin="round"/><path d="M517.89,634.33c15.37-.64,16.43,5.89,17.48,12.88s-12.62,6.3-12.62,6.3" transform="translate(-91.49-409.23)" fill="none" stroke="#1b2f37" stroke-width="2" stroke-linecap="round" stroke-linejoin="round"/><path d="" transform="translate(-91.49-409.23)" fill="none" stroke="#231f20" stroke-miterlimit="10"/><path d="M496.46,623.18c0,0,24-14.61,20.26,9.26" transform="translate(-91.49-409.23)" fill="none" stroke="#1b2f37" stroke-width="2" stroke-linecap="round" stroke-linejoin="round"/><path d="M441,628.69c0,0,16.95,15.73,27.87,9.09s-3.05-16.33-4.1-12.18-3.77,7.63,8.23,15.67s27.4,3.5,28.62,0s2.27-18.17-11.36-11.18s19.45,34.91,23.54,27.61" transform="translate(-91.49-409.23)" fill="none" stroke="#33494f" stroke-width="2" stroke-linecap="round" stroke-linejoin="round"/><path d="M678.2,944.3c0,0,1.52-8.21,8.51-9.79l357.55-286.6c0,0,19.23-15.55,36.53,0s350.65,288.73,350.65,288.73l-373,292.86c0,0-5.13,6.06-10.26,0s-362.65-286.27-362.65-286.27-4.73-3.65-7.33,1.07Z" transform="translate(-91.49-409.23)" fill="#310c5b"/></g><g id="eNLeoGY6u4l62"><path d="M463,718.34c0,0,2.62,10.49,11.71,11.53" transform="translate(-91.49-409.23)" fill="none" stroke="#7e4a2c" stroke-width="3" stroke-linecap="round" stroke-linejoin="round"/></g><g id="eNLeoGY6u4l64"><rect width="664.81" height="664.81" rx="5.06" ry="5.06" transform="matrix(.999879-.015533 0.015533 0.999879 622.880334 320.027273)" fill="#eee5e9"/><line x1="732.58" y1="435.81" x2="1173.67" y2="433.02" fill="none" stroke="#231f20" stroke-miterlimit="10"/><line x1="732.58" y1="503.23" x2="1173.67" y2="500.43" fill="none" stroke="#231f20" stroke-miterlimit="10"/><line x1="732.58" y1="579.7" x2="1173.67" y2="576.91" fill="none" stroke="#231f20" stroke-miterlimit="10"/><line x1="732.58" y1="656.18" x2="1173.67" y2="653.38" fill="none" stroke="#231f20" stroke-miterlimit="10"/><line x1="732.58" y1="723.6" x2="1173.67" y2="720.8" fill="none" stroke="#231f20" stroke-miterlimit="10"/><line x1="732.58" y1="800.07" x2="1173.67" y2="797.28" fill="none" stroke="#231f20" stroke-miterlimit="10"/><line x1="732.58" y1="876.55" x2="1173.67" y2="873.75" fill="none" stroke="#231f20" stroke-miterlimit="10"/></g><g><path d="M678.2,944.3c0,0,2.13-5.31,8.86,0l361.16,285.2c0,0,4.2,5.6,10.26,0L1427.1,938.71c0,0,3.73-4.66,5.12,0l18.88,500.5c0,0,1.4,8.62-4.08,7.93s-768.82-7.46-768.82-7.46-4.66,1.4-4.42-6.76s4.42-488.62,4.42-488.62Z" transform="translate(-91.49-409.23)" fill="#8536cf" stroke="#310c5b" stroke-width="3" stroke-linecap="round" stroke-linejoin="round"/><line x1="1086.8" y1="726.2" x2="1359.13" y2="1035.94" fill="none" stroke="#310c5b" stroke-width="3" stroke-linecap="round" stroke-linejoin="round"/><line x1="855.61" y1="738.49" x2="582.92" y2="1028.27" fill="none" stroke="#310c5b" stroke-width="3" stroke-linecap="round" stroke-linejoin="round"/><path d="M1313.67,980.26c1.73-.11,3.47-.16,5.23-.16c45.54,0,82.46,36.31,82.46,81.09s-36.92,81.1-82.46,81.1c-2.811951.001985-5.622205-.138194-8.42-.42" transform="translate(-91.49-409.23)" fill="#011627"/><circle r="81.09" transform="translate(1214.91 651.81)" fill="#253a41"/></g><g id="eNLeoGY6u4l79" transform="matrix(.5 0 0 0.5 607.822541 326.137711)"><circle r="10.95" transform="translate(1214.1 687.35)" fill="#d80434"/><path d="M1313.74,1070.83c0,0-2.45,6.29-7.34,6.29s-7.87-5.07-7.34-7.69-3-48.24-3-48.24-.18-5.06,4-5.59s16.42.88,16.42.88s3.15.17,3.15,4.89-5.89,49.46-5.89,49.46Z" transform="translate(-91.49-409.23)" fill="#d80434"/></g><g id="eNLeoGY6u4l82" transform="matrix(0 0 0 0 564.284084 273.9)"><path d="M693.13,676.58c44.088758,33.515737,106.43026,28.027285,143.984868-12.676211s38.01653-103.284424,1.066862-144.537851-99.20336-47.661539-143.782059-14.800273-56.874979,94.224018-28.399671,141.724335L649.31,693.7c0,0-4.66,10,4.66,4.84s39.16-21.96,39.16-21.96Z" transform="translate(-91.49-409.23)" fill="#fff" stroke="#011627" stroke-width="3" stroke-linecap="round" stroke-linejoin="round"/><path d="" transform="translate(-91.49-409.23)" fill="none" stroke="#231f20" stroke-miterlimit="10"/></g><g id="eNLeoGY6u4l85" transform="translate(.000001 0.000002)" opacity="0"><path d="M734.59,611.67l-10.92,9.08c-1.871519,2.023621-1.871519,5.146379,0,7.17h28.4c0,0,1.22,8,7.51,7.86s8.13-7.77,8.13-7.77l28.75-.18c0,0,2.09-4.63,0-6.81s-10.14-8.23-10.14-8.23l.12-32c0,0-2.33-18.41-21-21.67v-8.49c-.926444-2.145742-3.16194-3.418506-5.48-3.12-4.07.47-4.48,3.18-4.48,3.18v8.58c0,0-19.45.06-21.11,19.63Z" transform="translate(-91.49-409.23)" fill="#4bb3fd"/></g><script><![CDATA[!function(t,n){"object"==typeof exports&&"undefined"!=typeof module?module.exports=n():"function"==typeof define&&define.amd?define(n):((t="undefined"!=typeof globalThis?globalThis:t||self).__SVGATOR_PLAYER__=t.__SVGATOR_PLAYER__||{},t.__SVGATOR_PLAYER__["5c7f360c"]=n())}(this,(function(){"use strict";function t(t,n){var r=Object.keys(t);if(Object.getOwnPropertySymbols){var e=Object.getOwnPropertySymbols(t);n&&(e=e.filter((function(n){return Object.getOwnPropertyDescriptor(t,n).enumerable}))),r.push.apply(r,e)}return r}function n(n){for(var r=1;r<arguments.length;r++){var e=null!=arguments[r]?arguments[r]:{};r%2?t(Object(e),!0).forEach((function(t){u(n,t,e[t])})):Object.getOwnPropertyDescriptors?Object.defineProperties(n,Object.getOwnPropertyDescriptors(e)):t(Object(e)).forEach((function(t){Object.defineProperty(n,t,Object.getOwnPropertyDescriptor(e,t))}))}return n}function r(t){return(r="function"==typeof Symbol&&"symbol"==typeof Symbol.iterator?function(t){return typeof t}:function(t){return t&&"function"==typeof Symbol&&t.constructor===Symbol&&t!==Symbol.prototype?"symbol":typeof t})(t)}function e(t,n){if(!(t instanceof n))throw new TypeError("Cannot call a class as a function")}function i(t,n){for(var r=0;r<n.length;r++){var e=n[r];e.enumerable=e.enumerable||!1,e.configurable=!0,"value"in e&&(e.writable=!0),Object.defineProperty(t,e.key,e)}}function o(t,n,r){return n&&i(t.prototype,n),r&&i(t,r),t}function u(t,n,r){return n in t?Object.defineProperty(t,n,{value:r,enumerable:!0,configurable:!0,writable:!0}):t[n]=r,t}function a(t){return(a=Object.setPrototypeOf?Object.getPrototypeOf:function(t){return t.__proto__||Object.getPrototypeOf(t)})(t)}function l(t,n){return(l=Object.setPrototypeOf||function(t,n){return t.__proto__=n,t})(t,n)}function f(){if("undefined"==typeof Reflect||!Reflect.construct)return!1;if(Reflect.construct.sham)return!1;if("function"==typeof Proxy)return!0;try{return Boolean.prototype.valueOf.call(Reflect.construct(Boolean,[],(function(){}))),!0}catch(t){return!1}}function s(t,n,r){return(s=f()?Reflect.construct:function(t,n,r){var e=[null];e.push.apply(e,n);var i=new(Function.bind.apply(t,e));return r&&l(i,r.prototype),i}).apply(null,arguments)}function c(t,n){if(n&&("object"==typeof n||"function"==typeof n))return n;if(void 0!==n)throw new TypeError("Derived constructors may only return object or undefined");return function(t){if(void 0===t)throw new ReferenceError("this hasn't been initialised - super() hasn't been called");return t}(t)}function h(t,n,r){return(h="undefined"!=typeof Reflect&&Reflect.get?Reflect.get:function(t,n,r){var e=function(t,n){for(;!Object.prototype.hasOwnProperty.call(t,n)&&null!==(t=a(t)););return t}(t,n);if(e){var i=Object.getOwnPropertyDescriptor(e,n);return i.get?i.get.call(r):i.value}})(t,n,r||t)}function v(t){return function(t){if(Array.isArray(t))return y(t)}(t)||function(t){if("undefined"!=typeof Symbol&&null!=t[Symbol.iterator]||null!=t["@@iterator"])return Array.from(t)}(t)||function(t,n){if(!t)return;if("string"==typeof t)return y(t,n);var r=Object.prototype.toString.call(t).slice(8,-1);"Object"===r&&t.constructor&&(r=t.constructor.name);if("Map"===r||"Set"===r)return Array.from(t);if("Arguments"===r||/^(?:Ui|I)nt(?:8|16|32)(?:Clamped)?Array$/.test(r))return y(t,n)}(t)||function(){throw new TypeError("Invalid attempt to spread non-iterable instance.\nIn order to be iterable, non-array objects must have a [Symbol.iterator]() method.")}()}function y(t,n){(null==n||n>t.length)&&(n=t.length);for(var r=0,e=new Array(n);r<n;r++)e[r]=t[r];return e}var g=d(Math.pow(10,-6));function d(t){var n=arguments.length>1&&void 0!==arguments[1]?arguments[1]:6;if(Number.isInteger(t))return t;var r=Math.pow(10,n);return Math.round((+t+Number.EPSILON)*r)/r}function p(t,n){var r=arguments.length>2&&void 0!==arguments[2]?arguments[2]:g;return Math.abs(t-n)<r}var m=Math.PI/180;function b(t){return t}function w(t,n,r){var e=1-r;return 3*r*e*(t*e+n*r)+r*r*r}function A(){var t=arguments.length>0&&void 0!==arguments[0]?arguments[0]:0,n=arguments.length>1&&void 0!==arguments[1]?arguments[1]:0,r=arguments.length>2&&void 0!==arguments[2]?arguments[2]:1,e=arguments.length>3&&void 0!==arguments[3]?arguments[3]:1;return t<0||t>1||r<0||r>1?null:p(t,n)&&p(r,e)?b:function(i){if(i<=0)return t>0?i*n/t:0===n&&r>0?i*e/r:0;if(i>=1)return r<1?1+(i-1)*(e-1)/(r-1):1===r&&t<1?1+(i-1)*(n-1)/(t-1):1;for(var o,u=0,a=1;u<a;){var l=w(t,r,o=(u+a)/2);if(p(i,l))break;l<i?u=o:a=o}return w(n,e,o)}}function x(){return 1}function k(t){return 1===t?1:0}function S(){var t=arguments.length>0&&void 0!==arguments[0]?arguments[0]:1,n=arguments.length>1&&void 0!==arguments[1]?arguments[1]:0;if(1===t){if(0===n)return k;if(1===n)return x}var r=1/t;return function(t){return t>=1?1:(t+=n*r)-t%r}}var _=Math.sin,O=Math.cos,j=Math.acos,M=Math.asin,P=Math.tan,E=Math.atan2,I=Math.PI/180,R=180/Math.PI,F=Math.sqrt,N=function(){function t(){var n=arguments.length>0&&void 0!==arguments[0]?arguments[0]:1,r=arguments.length>1&&void 0!==arguments[1]?arguments[1]:0,i=arguments.length>2&&void 0!==arguments[2]?arguments[2]:0,o=arguments.length>3&&void 0!==arguments[3]?arguments[3]:1,u=arguments.length>4&&void 0!==arguments[4]?arguments[4]:0,a=arguments.length>5&&void 0!==arguments[5]?arguments[5]:0;e(this,t),this.m=[n,r,i,o,u,a],this.i=null,this.w=null,this.s=null}return o(t,[{key:"determinant",get:function(){var t=this.m;return t[0]*t[3]-t[1]*t[2]}},{key:"isIdentity",get:function(){if(null===this.i){var t=this.m;this.i=1===t[0]&&0===t[1]&&0===t[2]&&1===t[3]&&0===t[4]&&0===t[5]}return this.i}},{key:"point",value:function(t,n){var r=this.m;return{x:r[0]*t+r[2]*n+r[4],y:r[1]*t+r[3]*n+r[5]}}},{key:"translateSelf",value:function(){var t=arguments.length>0&&void 0!==arguments[0]?arguments[0]:0,n=arguments.length>1&&void 0!==arguments[1]?arguments[1]:0;if(!t&&!n)return this;var r=this.m;return r[4]+=r[0]*t+r[2]*n,r[5]+=r[1]*t+r[3]*n,this.w=this.s=this.i=null,this}},{key:"rotateSelf",value:function(){var t=arguments.length>0&&void 0!==arguments[0]?arguments[0]:0;if(t%=360){var n=_(t*=I),r=O(t),e=this.m,i=e[0],o=e[1];e[0]=i*r+e[2]*n,e[1]=o*r+e[3]*n,e[2]=e[2]*r-i*n,e[3]=e[3]*r-o*n,this.w=this.s=this.i=null}return this}},{key:"scaleSelf",value:function(){var t=arguments.length>0&&void 0!==arguments[0]?arguments[0]:1,n=arguments.length>1&&void 0!==arguments[1]?arguments[1]:1;if(1!==t||1!==n){var r=this.m;r[0]*=t,r[1]*=t,r[2]*=n,r[3]*=n,this.w=this.s=this.i=null}return this}},{key:"skewSelf",value:function(t,n){if(n%=360,(t%=360)||n){var r=this.m,e=r[0],i=r[1],o=r[2],u=r[3];t&&(t=P(t*I),r[2]+=e*t,r[3]+=i*t),n&&(n=P(n*I),r[0]+=o*n,r[1]+=u*n),this.w=this.s=this.i=null}return this}},{key:"resetSelf",value:function(){var t=arguments.length>0&&void 0!==arguments[0]?arguments[0]:1,n=arguments.length>1&&void 0!==arguments[1]?arguments[1]:0,r=arguments.length>2&&void 0!==arguments[2]?arguments[2]:0,e=arguments.length>3&&void 0!==arguments[3]?arguments[3]:1,i=arguments.length>4&&void 0!==arguments[4]?arguments[4]:0,o=arguments.length>5&&void 0!==arguments[5]?arguments[5]:0,u=this.m;return u[0]=t,u[1]=n,u[2]=r,u[3]=e,u[4]=i,u[5]=o,this.w=this.s=this.i=null,this}},{key:"recomposeSelf",value:function(){var t=arguments.length>0&&void 0!==arguments[0]?arguments[0]:null,n=arguments.length>1&&void 0!==arguments[1]?arguments[1]:null,r=arguments.length>2&&void 0!==arguments[2]?arguments[2]:null,e=arguments.length>3&&void 0!==arguments[3]?arguments[3]:null,i=arguments.length>4&&void 0!==arguments[4]?arguments[4]:null;return this.isIdentity||this.resetSelf(),t&&(t.x||t.y)&&this.translateSelf(t.x,t.y),n&&this.rotateSelf(n),r&&(r.x&&this.skewSelf(r.x,0),r.y&&this.skewSelf(0,r.y)),!e||1===e.x&&1===e.y||this.scaleSelf(e.x,e.y),i&&(i.x||i.y)&&this.translateSelf(i.x,i.y),this}},{key:"decompose",value:function(){var t=arguments.length>0&&void 0!==arguments[0]?arguments[0]:0,n=arguments.length>1&&void 0!==arguments[1]?arguments[1]:0,r=this.m,e=r[0]*r[0]+r[1]*r[1],i=[[r[0],r[1]],[r[2],r[3]]],o=F(e);if(0===o)return{origin:{x:d(r[4]),y:d(r[5])},translate:{x:d(t),y:d(n)},scale:{x:0,y:0},skew:{x:0,y:0},rotate:0};i[0][0]/=o,i[0][1]/=o;var u=r[0]*r[3]-r[1]*r[2]<0;u&&(o=-o);var a=i[0][0]*i[1][0]+i[0][1]*i[1][1];i[1][0]-=i[0][0]*a,i[1][1]-=i[0][1]*a;var l=F(i[1][0]*i[1][0]+i[1][1]*i[1][1]);if(0===l)return{origin:{x:d(r[4]),y:d(r[5])},translate:{x:d(t),y:d(n)},scale:{x:d(o),y:0},skew:{x:0,y:0},rotate:0};i[1][0]/=l,i[1][1]/=l,a/=l;var f=0;return i[1][1]<0?(f=j(i[1][1])*R,i[0][1]<0&&(f=360-f)):f=M(i[0][1])*R,u&&(f=-f),a=E(a,F(i[0][0]*i[0][0]+i[0][1]*i[0][1]))*R,u&&(a=-a),{origin:{x:d(r[4]),y:d(r[5])},translate:{x:d(t),y:d(n)},scale:{x:d(o),y:d(l)},skew:{x:d(a),y:0},rotate:d(f)}}},{key:"clone",value:function(){var t=this.m;return new this.constructor(t[0],t[1],t[2],t[3],t[4],t[5])}},{key:"toString",value:function(){var t=arguments.length>0&&void 0!==arguments[0]?arguments[0]:" ";if(null===this.s){var n=this.m.map((function(t){return d(t)}));1===n[0]&&0===n[1]&&0===n[2]&&1===n[3]?this.s="translate("+n[4]+t+n[5]+")":this.s="matrix("+n.join(t)+")"}return this.s}}],[{key:"create",value:function(t){return t?Array.isArray(t)?s(this,v(t)):t instanceof this?t.clone():(new this).recomposeSelf(t.origin,t.rotate,t.skew,t.scale,t.translate):new this}}]),t}();function T(t,n,r){return t>=.5?r:n}function B(t,n,r){return 0===t||n===r?n:t*(r-n)+n}function q(t,n,r){var e=B(t,n,r);return e<=0?0:e}function L(t,n,r){var e=B(t,n,r);return e<=0?0:e>=1?1:e}function C(t,n,r){return 0===t?n:1===t?r:{x:B(t,n.x,r.x),y:B(t,n.y,r.y)}}function D(t,n,r){var e=function(t,n,r){return Math.round(B(t,n,r))}(t,n,r);return e<=0?0:e>=255?255:e}function z(t,n,r){return 0===t?n:1===t?r:{r:D(t,n.r,r.r),g:D(t,n.g,r.g),b:D(t,n.b,r.b),a:B(t,null==n.a?1:n.a,null==r.a?1:r.a)}}function V(t,n){for(var r=[],e=0;e<t;e++)r.push(n);return r}function G(t,n){if(--n<=0)return t;var r=(t=Object.assign([],t)).length;do{for(var e=0;e<r;e++)t.push(t[e])}while(--n>0);return t}var Y,$=function(){function t(n){e(this,t),this.list=n,this.length=n.length}return o(t,[{key:"setAttribute",value:function(t,n){for(var r=this.list,e=0;e<this.length;e++)r[e].setAttribute(t,n)}},{key:"removeAttribute",value:function(t){for(var n=this.list,r=0;r<this.length;r++)n[r].removeAttribute(t)}},{key:"style",value:function(t,n){for(var r=this.list,e=0;e<this.length;e++)r[e].style[t]=n}}]),t}(),U=/-./g,Q=function(t,n){return n.toUpperCase()};function H(t){return"function"==typeof t?t:T}function J(t){return t?"function"==typeof t?t:Array.isArray(t)?function(t){var n=arguments.length>1&&void 0!==arguments[1]?arguments[1]:b;if(!Array.isArray(t))return n;switch(t.length){case 1:return S(t[0])||n;case 2:return S(t[0],t[1])||n;case 4:return A(t[0],t[1],t[2],t[3])||n}return n}(t,null):function(t,n){var r=arguments.length>2&&void 0!==arguments[2]?arguments[2]:b;switch(t){case"linear":return b;case"steps":return S(n.steps||1,n.jump||0)||r;case"bezier":case"cubic-bezier":return A(n.x1||0,n.y1||0,n.x2||0,n.y2||0)||r}return r}(t.type,t.value,null):null}function Z(t,n,r){var e=arguments.length>3&&void 0!==arguments[3]&&arguments[3],i=n.length-1;if(t<=n[0].t)return e?[0,0,n[0].v]:n[0].v;if(t>=n[i].t)return e?[i,1,n[i].v]:n[i].v;var o,u=n[0],a=null;for(o=1;o<=i;o++){if(!(t>n[o].t)){a=n[o];break}u=n[o]}return null==a?e?[i,1,n[i].v]:n[i].v:u.t===a.t?e?[o,1,a.v]:a.v:(t=(t-u.t)/(a.t-u.t),u.e&&(t=u.e(t)),e?[o,t,r(t,u.v,a.v)]:r(t,u.v,a.v))}function K(t,n){var r=arguments.length>2&&void 0!==arguments[2]?arguments[2]:null;return t&&t.length?"function"!=typeof n?null:("function"!=typeof r&&(r=null),function(e){var i=Z(e,t,n);return null!=i&&r&&(i=r(i)),i}):null}function W(t,n){return t.t-n.t}function X(t,n,e,i,o){var u,a="@"===e[0],l="#"===e[0],f=Y[e],s=T;switch(a?(u=e.substr(1),e=u.replace(U,Q)):l&&(e=e.substr(1)),r(f)){case"function":if(s=f(i,o,Z,J,e,a,n,t),l)return s;break;case"string":s=K(i,H(f));break;case"object":if((s=K(i,H(f.i),f.f))&&"function"==typeof f.u)return f.u(n,s,e,a,t)}return s?function(t,n,r){if(arguments.length>3&&void 0!==arguments[3]&&arguments[3])return t instanceof $?function(e){return t.style(n,r(e))}:function(e){return t.style[n]=r(e)};if(Array.isArray(n)){var e=n.length;return function(i){var o=r(i);if(null==o)for(var u=0;u<e;u++)t[u].removeAttribute(n);else for(var a=0;a<e;a++)t[a].setAttribute(n,o)}}return function(e){var i=r(e);null==i?t.removeAttribute(n):t.setAttribute(n,i)}}(n,e,s,a):null}function tt(t,n,e,i){if(!i||"object"!==r(i))return null;var o=null,u=null;return Array.isArray(i)?u=function(t){if(!t||!t.length)return null;for(var n=0;n<t.length;n++)t[n].e&&(t[n].e=J(t[n].e));return t.sort(W)}(i):(u=i.keys,o=i.data||null),u?X(t,n,e,u,o):null}function nt(t,n,r){if(!r)return null;var e=[];for(var i in r)if(r.hasOwnProperty(i)){var o=tt(t,n,i,r[i]);o&&e.push(o)}return e.length?e:null}function rt(t,n){if(!n.duration||n.duration<0)return null;var r=function(t,n){if(!n)return null;var r=[];if(Array.isArray(n))for(var e=n.length,i=0;i<e;i++){var o=n[i];if(2===o.length){var u=null;if("string"==typeof o[0])u=t.getElementById(o[0]);else if(Array.isArray(o[0])){u=[];for(var a=0;a<o[0].length;a++)if("string"==typeof o[0][a]){var l=t.getElementById(o[0][a]);l&&u.push(l)}u=u.length?1===u.length?u[0]:new $(u):null}if(u){var f=nt(t,u,o[1]);f&&(r=r.concat(f))}}}else for(var s in n)if(n.hasOwnProperty(s)){var c=t.getElementById(s);if(c){var h=nt(t,c,n[s]);h&&(r=r.concat(h))}}return r.length?r:null}(t,n.elements);return r?function(t,n){var r=arguments.length>2&&void 0!==arguments[2]?arguments[2]:1/0,e=arguments.length>3&&void 0!==arguments[3]?arguments[3]:1,i=arguments.length>4&&void 0!==arguments[4]&&arguments[4],o=arguments.length>5&&void 0!==arguments[5]?arguments[5]:1,u=t.length,a=e>0?n:0;i&&r%2==0&&(a=n-a);var l=null;return function(f,s){var c=f%n,h=1+(f-c)/n;s*=e,i&&h%2==0&&(s=-s);var v=!1;if(h>r)c=a,v=!0,-1===o&&(c=e>0?0:n);else if(s<0&&(c=n-c),c===l)return!1;l=c;for(var y=0;y<u;y++)t[y](c);return v}}(r,n.duration,n.iterations||1/0,n.direction||1,!!n.alternate,n.fill||1):null}function et(t){return+("0x"+(t.replace(/[^0-9a-fA-F]+/g,"")||27))}function it(t,n,r){return!t||!r||n>t.length?t:t.substring(0,n)+it(t.substring(n+1),r,r)}function ot(t){var n=arguments.length>1&&void 0!==arguments[1]?arguments[1]:27;return!t||t%n?t%n:ot(t/n,n)}function ut(t,n,r){if(t&&t.length){var e=et(r),i=et(n),o=ot(e)+5,u=it(t,ot(e,5),o);return u=u.replace(/\x7c$/g,"==").replace(/\x2f$/g,"="),u=function(t,n,r){var e=+("0x"+t.substring(0,4));t=t.substring(4);for(var i=n%e+r%27,o=[],u=0;u<t.length;u+=2)if("|"!==t[u]){var a=+("0x"+t[u]+t[u+1])-i;o.push(a)}else{var l=+("0x"+t.substring(u+1,u+1+4))-i;u+=3,o.push(l)}return String.fromCharCode.apply(String,o)}(u=(u=atob(u)).replace(/[\x41-\x5A]/g,""),i,e),u=JSON.parse(u)}}Number.isInteger||(Number.isInteger=function(t){return"number"==typeof t&&isFinite(t)&&Math.floor(t)===t}),Number.EPSILON||(Number.EPSILON=2220446049250313e-31);var at=function(){function t(n,r){var i=arguments.length>2&&void 0!==arguments[2]?arguments[2]:{};e(this,t),this._id=0,this._running=!1,this._rollingBack=!1,this._animations=n,this.duration=r.duration,this.alternate=r.alternate,this.fill=r.fill,this.iterations=r.iterations,this.direction=i.direction||1,this.speed=i.speed||1,this.fps=i.fps||100,this.offset=i.offset||0,this.rollbackStartOffset=0}return o(t,[{key:"_rollback",value:function(){var t=this,n=1/0,r=null;this.rollbackStartOffset=this.offset,this._rollingBack||(this._rollingBack=!0,this._running=!0);this._id=window.requestAnimationFrame((function e(i){if(t._rollingBack){null==r&&(r=i);var o=i-r,u=t.rollbackStartOffset-o,a=Math.round(u*t.speed);if(a>t.duration&&n!=1/0){var l=!!t.alternate&&a/t.duration%2>1,f=a%t.duration;a=(f+=l?t.duration:0)||t.duration}var s=t.fps?1e3/t.fps:0,c=Math.max(0,a);if(c<n-s){t.offset=c,n=c;for(var h=t._animations,v=h.length,y=0;y<v;y++)h[y](c,t.direction)}var g=!1;if(t.iterations>0&&-1===t.fill){var d=t.iterations*t.duration,p=d==a;a=p?0:a,t.offset=p?0:t.offset,g=a>d}a>0&&t.offset>=a&&!g?t._id=window.requestAnimationFrame(e):t.stop()}}))}},{key:"_start",value:function(){var t=this,n=arguments.length>0&&void 0!==arguments[0]?arguments[0]:0,r=-1/0,e=null,i={},o=function o(u){t._running=!0,null==e&&(e=u);var a=Math.round((u-e+n)*t.speed),l=t.fps?1e3/t.fps:0;if(a>r+l&&!t._rollingBack){t.offset=a,r=a;for(var f=t._animations,s=f.length,c=0,h=0;h<s;h++)i[h]?c++:(i[h]=f[h](a,t.direction),i[h]&&c++);if(c===s)return void t._stop()}t._id=window.requestAnimationFrame(o)};this._id=window.requestAnimationFrame(o)}},{key:"_stop",value:function(){this._id&&window.cancelAnimationFrame(this._id),this._running=!1,this._rollingBack=!1}},{key:"play",value:function(){!this._rollingBack&&this._running||(this._rollingBack=!1,this.rollbackStartOffset>this.duration&&(this.offset=this.rollbackStartOffset-(this.rollbackStartOffset-this.offset)%this.duration,this.rollbackStartOffset=0),this._start(this.offset))}},{key:"stop",value:function(){this._stop(),this.offset=0,this.rollbackStartOffset=0;var t=this.direction,n=this._animations;window.requestAnimationFrame((function(){for(var r=0;r<n.length;r++)n[r](0,t)}))}},{key:"reachedToEnd",value:function(){return this.iterations>0&&this.offset>=this.iterations*this.duration}},{key:"restart",value:function(){this._stop(),this.offset=0,this._start()}},{key:"pause",value:function(){this._stop()}},{key:"reverse",value:function(){this.direction=-this.direction}}],[{key:"build",value:function(r,e){return delete r.animationSettings,r.options=ut(r.options,r.root,"5c7f360c"),r.animations.map((function(t){var e=ut(t.s,r.root,"5c7f360c");for(var i in delete t.s,r.animationSettings||(r.animationSettings=n({},e)),e)e.hasOwnProperty(i)&&(t[i]=e[i])})),(r=function(t,n){if(Y=n,!t||!t.root||!Array.isArray(t.animations))return null;for(var r=document.getElementsByTagName("svg"),e=!1,i=0;i<r.length;i++)if(r[i].id===t.root&&!r[i].svgatorAnimation){(e=r[i]).svgatorAnimation=!0;break}if(!e)return null;var o=t.animations.map((function(t){return rt(e,t)})).filter((function(t){return!!t}));return o.length?{element:e,animations:o,animationSettings:t.animationSettings,options:t.options||void 0}:null}(r,e))?{el:r.element,options:r.options||{},player:new t(r.animations,r.animationSettings,r.options)}:null}},{key:"push",value:function(t){return this.build(t)}},{key:"init",value:function(){var t=this,n=window.__SVGATOR_PLAYER__&&window.__SVGATOR_PLAYER__["5c7f360c"];Array.isArray(n)&&n.splice(0).forEach((function(n){return t.build(n)}))}}]),t}();function lt(t){return d(t)+""}function ft(t){var n=arguments.length>1&&void 0!==arguments[1]?arguments[1]:" ";return t&&t.length?t.map(lt).join(n):""}function st(t){if(!t)return"transparent";if(null==t.a||t.a>=1){var n=function(t){return 1===(t=parseInt(t).toString(16)).length?"0"+t:t},r=function(t){return t.charAt(0)===t.charAt(1)},e=n(t.r),i=n(t.g),o=n(t.b);return r(e)&&r(i)&&r(o)&&(e=e.charAt(0),i=i.charAt(0),o=o.charAt(0)),"#"+e+i+o}return"rgba("+t.r+","+t.g+","+t.b+","+t.a+")"}function ct(t){return t?"url(#"+t+")":"none"}!function(){for(var t=0,n=["ms","moz","webkit","o"],r=0;r<n.length&&!window.requestAnimationFrame;++r)window.requestAnimationFrame=window[n[r]+"RequestAnimationFrame"],window.cancelAnimationFrame=window[n[r]+"CancelAnimationFrame"]||window[n[r]+"CancelRequestAnimationFrame"];window.requestAnimationFrame||(window.requestAnimationFrame=function(n){var r=Date.now(),e=Math.max(0,16-(r-t)),i=window.setTimeout((function(){n(r+e)}),e);return t=r+e,i},window.cancelAnimationFrame=window.clearTimeout)}();var ht={f:null,i:function(t,n,r){return 0===t?n:1===t?r:{x:q(t,n.x,r.x),y:q(t,n.y,r.y)}},u:function(t,n){return function(r){var e=n(r);t.setAttribute("rx",lt(e.x)),t.setAttribute("ry",lt(e.y))}}},vt={f:null,i:function(t,n,r){return 0===t?n:1===t?r:{width:q(t,n.width,r.width),height:q(t,n.height,r.height)}},u:function(t,n){return function(r){var e=n(r);t.setAttribute("width",lt(e.width)),t.setAttribute("height",lt(e.height))}}};Object.freeze({M:2,L:2,Z:0,H:1,V:1,C:6,Q:4,T:2,S:4,A:7});var yt={},gt=null;function dt(t){var n=function(){if(gt)return gt;if("object"!==("undefined"==typeof document?"undefined":r(document))||!document.createElementNS)return{};var t=document.createElementNS("http://www.w3.org/2000/svg","svg");return t&&t.style?(t.style.position="absolute",t.style.opacity="0.01",t.style.zIndex="-9999",t.style.left="-9999px",t.style.width="1px",t.style.height="1px",gt={svg:t}):{}}().svg;if(!n)return function(t){return null};var e=document.createElementNS(n.namespaceURI,"path");e.setAttributeNS(null,"d",t),e.setAttributeNS(null,"fill","none"),e.setAttributeNS(null,"stroke","none"),n.appendChild(e);var i=e.getTotalLength();return function(t){var n=e.getPointAtLength(i*t);return{x:n.x,y:n.y}}}function pt(t){return yt[t]?yt[t]:yt[t]=dt(t)}function mt(t,n,r,e){if(!t||!e)return!1;var i=["M",t.x,t.y];if(n&&r&&(i.push("C"),i.push(n.x),i.push(n.y),i.push(r.x),i.push(r.y)),n?!r:r){var o=n||r;i.push("Q"),i.push(o.x),i.push(o.y)}return n||r||i.push("L"),i.push(e.x),i.push(e.y),i.join(" ")}function bt(t,n,r,e){var i=arguments.length>4&&void 0!==arguments[4]?arguments[4]:1,o=mt(t,n,r,e),u=pt(o);try{return u(i)}catch(t){return null}}function wt(t,n,r,e){var i=1-e;return i*i*t+2*i*e*n+e*e*r}function At(t,n,r,e){return 2*(1-e)*(n-t)+2*e*(r-n)}function xt(t,n,r,e){var i=arguments.length>4&&void 0!==arguments[4]&&arguments[4],o=bt(t,n,null,r,e);return o||(o={x:wt(t.x,n.x,r.x,e),y:wt(t.y,n.y,r.y,e)}),i&&(o.a=kt(t,n,r,e)),o}function kt(t,n,r,e){return Math.atan2(At(t.y,n.y,r.y,e),At(t.x,n.x,r.x,e))}function St(t,n,r,e,i){var o=i*i;return i*o*(e-t+3*(n-r))+3*o*(t+r-2*n)+3*i*(n-t)+t}function _t(t,n,r,e,i){var o=1-i;return 3*(o*o*(n-t)+2*o*i*(r-n)+i*i*(e-r))}function Ot(t,n,r,e,i){var o=arguments.length>5&&void 0!==arguments[5]&&arguments[5],u=bt(t,n,r,e,i);return u||(u={x:St(t.x,n.x,r.x,e.x,i),y:St(t.y,n.y,r.y,e.y,i)}),o&&(u.a=jt(t,n,r,e,i)),u}function jt(t,n,r,e,i){return Math.atan2(_t(t.y,n.y,r.y,e.y,i),_t(t.x,n.x,r.x,e.x,i))}function Mt(t,n,r){return t+(n-t)*r}function Pt(t,n,r){var e=arguments.length>3&&void 0!==arguments[3]&&arguments[3],i={x:Mt(t.x,n.x,r),y:Mt(t.y,n.y,r)};return e&&(i.a=Et(t,n)),i}function Et(t,n){return Math.atan2(n.y-t.y,n.x-t.x)}function It(t,n,r){var e=arguments.length>3&&void 0!==arguments[3]&&arguments[3];if(Ft(n)){if(Nt(r))return xt(n,r.start,r,t,e)}else if(Ft(r)){if(n.end)return xt(n,n.end,r,t,e)}else{if(n.end)return r.start?Ot(n,n.end,r.start,r,t,e):xt(n,n.end,r,t,e);if(r.start)return xt(n,r.start,r,t,e)}return Pt(n,r,t,e)}function Rt(t,n,r){var e=It(t,n,r,!0);return e.a=function(t){return arguments.length>1&&void 0!==arguments[1]&&arguments[1]?t+Math.PI:t}(e.a)/m,e}function Ft(t){return!t.type||"corner"===t.type}function Nt(t){return null!=t.start&&!Ft(t)}var Tt=new N;var Bt={f:lt,i:B},qt={f:lt,i:L};function Lt(t,n,r){return t.map((function(t){return function(t,n,r){var e=t.v;if(!e||"g"!==e.t||e.s||!e.v||!e.r)return t;var i=r.getElementById(e.r),o=i&&i.querySelectorAll("stop")||[];return e.s=e.v.map((function(t,n){var r=o[n]&&o[n].getAttribute("offset");return{c:t,o:r=d(parseInt(r)/100)}})),delete e.v,t}(t,0,r)}))}var Ct={gt:"gradientTransform",c:{x:"cx",y:"cy"},rd:"r",f:{x:"x1",y:"y1"},to:{x:"x2",y:"y2"}};function Dt(t,n,e,i,o,u,a,l){return Lt(t,0,l),n=function(t,n,r){for(var e,i,o,u=t.length-1,a={},l=0;l<=u;l++)(e=t[l]).e&&(e.e=n(e.e)),e.v&&"g"===(i=e.v).t&&i.r&&(o=r.getElementById(i.r))&&(a[i.r]={e:o,s:o.querySelectorAll("stop")});return a}(t,i,l),function(i){var o=e(i,t,zt);if(!o)return"none";if("c"===o.t)return st(o.v);if("g"===o.t){if(!n[o.r])return ct(o.r);var u=n[o.r];return function(t,n){for(var r=t.s,e=r.length;e<n.length;e++){var i=r[r.length-1].cloneNode();i.id=Yt(i.id),t.e.appendChild(i),r=t.s=t.e.querySelectorAll("stop")}for(var o=0,u=r.length,a=n.length-1;o<u;o++)r[o].setAttribute("stop-color",st(n[Math.min(o,a)].c)),r[o].setAttribute("offset",n[Math.min(o,a)].o)}(u,o.s),Object.keys(Ct).forEach((function(t){if(void 0!==o[t])if("object"!==r(Ct[t])){var n,e="gt"===t?(n=o[t],Array.isArray(n)?"matrix("+n.join(" ")+")":""):o[t],i=Ct[t];u.e.setAttribute(i,e)}else Object.keys(Ct[t]).forEach((function(n){if(void 0!==o[t][n]){var r=o[t][n],e=Ct[t][n];u.e.setAttribute(e,r)}}))})),ct(o.r)}return"none"}}function zt(t,r,e){if(0===t)return r;if(1===t)return e;if(r&&e){var i=r.t;if(i===e.t)switch(r.t){case"c":return{t:i,v:z(t,r.v,e.v)};case"g":if(r.r===e.r){var o={t:i,s:Vt(t,r.s,e.s),r:r.r};return r.gt&&e.gt&&(o.gt=function(t,n,r){var e=n.length;if(e!==r.length)return T(t,n,r);for(var i=new Array(e),o=0;o<e;o++)i[o]=B(t,n[o],r[o]);return i}(t,r.gt,e.gt)),r.c?(o.c=C(t,r.c,e.c),o.rd=q(t,r.rd,e.rd)):r.f&&(o.f=C(t,r.f,e.f),o.to=C(t,r.to,e.to)),o}}if("c"===r.t&&"g"===e.t||"c"===e.t&&"g"===r.t){var u="c"===r.t?r:e,a="g"===r.t?n({},r):n({},e),l=a.s.map((function(t){return{c:u.v,o:t.o}}));return a.s="c"===r.t?Vt(t,l,a.s):Vt(t,a.s,l),a}}return T(t,r,e)}function Vt(t,n,r){if(n.length===r.length)return n.map((function(n,e){return Gt(t,n,r[e])}));for(var e=Math.max(n.length,r.length),i=[],o=0;o<e;o++){var u=Gt(t,n[Math.min(o,n.length-1)],r[Math.min(o,r.length-1)]);i.push(u)}return i}function Gt(t,n,r){return{o:L(t,n.o,r.o||0),c:z(t,n.c,r.c||{})}}function Yt(t){return t.replace(/-fill-([0-9]+)$/,(function(t,n){return"-fill-"+(+n+1)}))}var $t={fill:Dt,"fill-opacity":qt,stroke:Dt,"stroke-opacity":qt,"stroke-width":Bt,"stroke-dashoffset":{f:lt,i:B},"stroke-dasharray":{f:function(t){var n=arguments.length>1&&void 0!==arguments[1]?arguments[1]:" ";return t&&t.length>0&&(t=t.map((function(t){return d(t,4)}))),ft(t,n)},i:function(t,n,r){var e,i,o,u=n.length,a=r.length;if(u!==a)if(0===u)n=V(u=a,0);else if(0===a)a=u,r=V(u,0);else{var l=(o=(e=u)*(i=a)/function(t,n){for(var r;n;)r=n,n=t%n,t=r;return t||1}(e,i))<0?-o:o;n=G(n,Math.floor(l/u)),r=G(r,Math.floor(l/a)),u=a=l}for(var f=[],s=0;s<u;s++)f.push(d(q(t,n[s],r[s])));return f}},opacity:qt,transform:function(t,n,e,i){if(!(t=function(t,n){if(!t||"object"!==r(t))return null;var e=!1;for(var i in t)t.hasOwnProperty(i)&&(t[i]&&t[i].length?(t[i].forEach((function(t){t.e&&(t.e=n(t.e))})),e=!0):delete t[i]);return e?t:null}(t,i)))return null;var o=function(r,i,o){var u=arguments.length>3&&void 0!==arguments[3]?arguments[3]:null;return t[r]?e(i,t[r],o):n&&n[r]?n[r]:u};return n&&n.a&&t.o?function(n){var r=e(n,t.o,Rt);return Tt.recomposeSelf(r,o("r",n,B,0)+r.a,o("k",n,C),o("s",n,C),o("t",n,C)).toString()}:function(t){return Tt.recomposeSelf(o("o",t,It,null),o("r",t,B,0),o("k",t,C),o("s",t,C),o("t",t,C)).toString()}},r:Bt,"#size":vt,"#radius":ht,_:function(t,n){if(Array.isArray(t))for(var r=0;r<t.length;r++)this[t[r]]=n;else this[t]=n}},Ut=function(t){!function(t,n){if("function"!=typeof n&&null!==n)throw new TypeError("Super expression must either be null or a function");t.prototype=Object.create(n&&n.prototype,{constructor:{value:t,writable:!0,configurable:!0}}),n&&l(t,n)}(u,t);var n,r,i=(n=u,r=f(),function(){var t,e=a(n);if(r){var i=a(this).constructor;t=Reflect.construct(e,arguments,i)}else t=e.apply(this,arguments);return c(this,t)});function u(){return e(this,u),i.apply(this,arguments)}return o(u,null,[{key:"build",value:function(t){var n=h(a(u),"build",this).call(this,t,$t);if(!n)return null;n.el,n.options,function(t,n,r){t.play()}(n.player)}}]),u}(at);return Ut.init(),Ut}));
(function(s,i,o,w){w[o]=w[o]||{};w[o][s]=w[o][s]||[];w[o][s].push(i);})('5c7f360c',{"root":"eNLeoGY6u4l1","animations":[{"elements":{"eNLeoGY6u4l22":{"transform":{"data":{"o":{"x":186.205801,"y":545.22209,"type":"corner"},"t":{"x":-186.205801,"y":-545.222089}},"keys":{"r":[{"t":0,"v":-9.941538},{"t":500,"v":11.178778},{"t":1000,"v":-9.941538},{"t":1500,"v":11.178778},{"t":2000,"v":-9.941538},{"t":2500,"v":11.178778},{"t":3000,"v":-9.941538}]}}},"eNLeoGY6u4l62":{"transform":{"data":{"o":{"x":377.365005,"y":314.875031,"type":"corner"},"t":{"x":-377.365005,"y":-314.875031}},"keys":{"s":[{"t":0,"v":{"x":1,"y":1}},{"t":500,"v":{"x":-1,"y":-1}},{"t":2700,"v":{"x":-1,"y":-1}},{"t":3000,"v":{"x":1,"y":1}}]}}},"eNLeoGY6u4l64":{"transform":{"data":{"t":{"x":-960.408325,"y":-647.229126}},"keys":{"o":[{"t":0,"v":{"x":960.408325,"y":647.229126,"type":"corner"}},{"t":700,"v":{"x":964.411782,"y":552.492321,"type":"corner"}},{"t":1500,"v":{"x":960.408325,"y":647.229126,"type":"corner"}},{"t":2200,"v":{"x":964.411782,"y":552.492321,"type":"corner"}},{"t":3000,"v":{"x":960.408325,"y":647.229126,"type":"corner"}}]}}},"eNLeoGY6u4l79":{"transform":{"data":{"o":{"x":1215.645081,"y":652.275421,"type":"corner"},"t":{"x":-1215.645081,"y":-652.275421}},"keys":{"s":[{"t":0,"v":{"x":0.5,"y":0.5}},{"t":500,"v":{"x":1,"y":1}},{"t":1000,"v":{"x":0.5,"y":0.5}},{"t":1500,"v":{"x":1,"y":1}},{"t":2000,"v":{"x":0.5,"y":0.5}},{"t":2500,"v":{"x":1,"y":1}},{"t":3000,"v":{"x":0.5,"y":0.5}}]}}},"eNLeoGY6u4l82":{"transform":{"data":{"o":{"x":564.284084,"y":273.9,"type":"corner"},"t":{"x":-556.660268,"y":-280.786478}},"keys":{"s":[{"t":500,"v":{"x":0,"y":0}},{"t":700,"v":{"x":0.938983,"y":0.938983}},{"t":2800,"v":{"x":0.938983,"y":0.938983}},{"t":3000,"v":{"x":0,"y":0}}]}}},"eNLeoGY6u4l85":{"transform":{"data":{"o":{"x":666.370175,"y":138.236919,"type":"corner"},"t":{"x":-666.370174,"y":-138.236917}},"keys":{"r":[{"t":500,"v":0},{"t":900,"v":-8.794598},{"t":1300,"v":9.934263},{"t":1700,"v":-8.794598},{"t":2100,"v":9.934263},{"t":2500,"v":-8.794598},{"t":2900,"v":9.934263}]}},"opacity":[{"t":700,"v":0},{"t":1000,"v":1},{"t":2700,"v":1},{"t":3000,"v":0}]}},"s":"MQDA1M2FjNTM5NUthNmUEzOTJhNTlhYTBHOWYH1MzZiUjY0NjE2MTYxCNWQ1Mzk1OWFhMzk2OBTRhNTlhYTA5ZjUzVzSZiNjI1ZDUzOWFhNTkJ2YTNFOTJhNTlhYTA5AZmE0NTM2YjYxNWRSNJTM5NzlhOWQ5ZDUzNmGI2MjVkNTM5MjlkYTUM5NmEzOWY5MmE1OTY1GMzZiOTc5MjlkYTQ5NIjVkNTNhNGExOTY5NjBk1NTM2YjYyYWU/"}],"options":"MQDAxMDg4MmY4MDgxNmXU3ZjgxMmY0NzJmNzkG3YzZlUTcxMmY4YQ|"},'__SVGATOR_PLAYER__',window)]]></script></svg>