<svg id='qrcode-svg'xmlns="http://www.w3.org/2000/svg" xmlns:xlink="http://www.w3.org/1999/xlink" viewBox="0 0 995.89 384.74"><defs><style>.cls-1{fill:url(#linear-gradient);}.cls-2{fill:url(#linear-gradient-2);}.cls-3{fill:url(#linear-gradient-3);}.cls-4{fill:url(#linear-gradient-4);}.cls-5{fill:url(#linear-gradient-5);}.cls-6{fill:url(#linear-gradient-6);}.cls-7{fill:url(#linear-gradient-7);}.cls-8{fill:url(#linear-gradient-8);}.cls-9{fill:url(#linear-gradient-9);}.cls-10{fill:url(#linear-gradient-10);}.cls-11{fill:url(#linear-gradient-11);}.cls-12{fill:url(#linear-gradient-12);}.cls-13{fill:url(#linear-gradient-13);}</style><linearGradient id="linear-gradient" x1="113.62" y1="164.48" x2="113.62" y2="23.07" gradientUnits="userSpaceOnUse"><stop offset="0" stop-color="#c498c1"/><stop offset="1" stop-color="#90a1d2"/></linearGradient><linearGradient id="linear-gradient-2" x1="293.8" y1="164.48" x2="293.8" y2="23.07" xlink:href="#linear-gradient"/><linearGradient id="linear-gradient-3" x1="435.91" y1="164.48" x2="435.91" y2="23.07" xlink:href="#linear-gradient"/><linearGradient id="linear-gradient-4" x1="575" y1="164.48" x2="575" y2="23.07" xlink:href="#linear-gradient"/><linearGradient id="linear-gradient-5" x1="680.45" y1="164.48" x2="680.45" y2="23.07" xlink:href="#linear-gradient"/><linearGradient id="linear-gradient-6" x1="785.9" y1="164.48" x2="785.9" y2="23.07" xlink:href="#linear-gradient"/><linearGradient id="linear-gradient-7" x1="938.39" y1="165.49" x2="938.39" y2="21.46" xlink:href="#linear-gradient"/><linearGradient id="linear-gradient-8" x1="59.84" y1="406.2" x2="59.84" y2="264.8" xlink:href="#linear-gradient"/><linearGradient id="linear-gradient-9" x1="159.44" y1="406.2" x2="159.44" y2="264.8" xlink:href="#linear-gradient"/><linearGradient id="linear-gradient-10" x1="272.14" y1="406.2" x2="272.14" y2="264.8" xlink:href="#linear-gradient"/><linearGradient id="linear-gradient-11" x1="391.19" y1="406.2" x2="391.19" y2="264.8" xlink:href="#linear-gradient"/><linearGradient id="linear-gradient-12" x1="506.51" y1="406.2" x2="506.51" y2="264.8" xlink:href="#linear-gradient"/><linearGradient id="linear-gradient-13" x1="627.67" y1="406.2" x2="627.67" y2="264.8" xlink:href="#linear-gradient"/></defs><g id="Layer_2" data-name="Layer 2"><path class="cls-1" d="M214.64,23.07,177.78,164.48h-41.7L113.52,71.42,90.15,164.48H48.45L12.6,23.07H49.46L69.81,126,95,23.07h37.87L157,126,177.57,23.07Z" transform="translate(-12.6 -21.46)"/><path class="cls-2" d="M320,139.5H267.21l-8.46,25H222.69L273.86,23.07h39.88l51.17,141.41H328.45Zm-8.87-26.59L293.6,61.15l-17.33,51.76Z" transform="translate(-12.6 -21.46)"/><path class="cls-3" d="M452.53,164.48,423.12,111.1h-8.26v53.38H380.42V23.07h57.81q16.71,0,28.5,5.85t17.63,16a44.74,44.74,0,0,1,5.84,22.66,42,42,0,0,1-8,25.18q-8,11.08-23.47,15.71l32.64,56ZM414.86,86.73h21.35q9.46,0,14.21-4.63T455.15,69q0-8.05-4.73-12.69t-14.21-4.63H414.86Z" transform="translate(-12.6 -21.46)"/><path class="cls-4" d="M638.25,164.48H603.81L546.2,77.26v87.22H511.75V23.07H546.2l57.61,87.63V23.07h34.44Z" transform="translate(-12.6 -21.46)"/><path class="cls-5" d="M697.68,23.07V164.48H663.23V23.07Z" transform="translate(-12.6 -21.46)"/><path class="cls-6" d="M849.15,164.48H814.71L757.1,77.26v87.22H722.65V23.07H757.1l57.61,87.63V23.07h34.44Z" transform="translate(-12.6 -21.46)"/><path class="cls-7" d="M968,67.79A25.71,25.71,0,0,0,957,57a35.85,35.85,0,0,0-16.82-3.73q-16.73,0-26.79,11T903.34,93.58q0,19.53,10.57,30.51t29.11,11q12.69,0,21.46-6.44t12.79-18.54H933.55V84.71h74.94v32a67.6,67.6,0,0,1-13,24,68.55,68.55,0,0,1-23.27,17.93q-14.1,6.86-31.83,6.85-20.94,0-37.36-9.17a65.24,65.24,0,0,1-25.59-25.48q-9.16-16.32-9.16-37.26t9.16-37.37a65.31,65.31,0,0,1,25.49-25.58q16.3-9.16,37.26-9.17,25.38,0,42.81,12.29t23.06,34Z" transform="translate(-12.6 -21.46)"/><path class="cls-8" d="M54.5,379.61H99.62V406.2H20.05V264.8H54.5Z" transform="translate(-12.6 -21.46)"/><path class="cls-9" d="M150.58,292.39V321h46.13v26.59H150.58v31h52.17V406.2H116.13V264.8h86.62v27.59Z" transform="translate(-12.6 -21.46)"/><path class="cls-10" d="M326.83,264.8v27.59H289.37V406.2H254.92V292.39H217.45V264.8Z" transform="translate(-12.6 -21.46)"/><path class="cls-11" d="M445.88,264.8v27.59H408.41V406.2H374V292.39H336.5V264.8Z" transform="translate(-12.6 -21.46)"/><path class="cls-12" d="M497.65,292.39V321h46.12v26.59H497.65v31h52.17V406.2H463.2V264.8h86.62v27.59Z" transform="translate(-12.6 -21.46)"/><path class="cls-13" d="M644.29,406.2l-29.41-53.38h-8.26V406.2H572.17V264.8H630q16.72,0,28.51,5.84t17.62,16A44.66,44.66,0,0,1,682,309.31a42.1,42.1,0,0,1-8,25.18q-8,11.08-23.47,15.71l32.63,56Zm-37.67-77.75H628q9.46,0,14.2-4.63t4.73-13.1q0-8.06-4.73-12.69T628,293.4H606.62Z" transform="translate(-12.6 -21.46)"/></g></svg>