<svg id="eXrPpOSicAk1" xmlns="http://www.w3.org/2000/svg" xmlns:xlink="http://www.w3.org/1999/xlink" viewBox="0 0 1819.17 1687.58" shape-rendering="geometricPrecision" text-rendering="geometricPrecision"><g><rect width="867.97" height="538.95" rx="25.05" ry="25.05" transform="translate(31.96 15)" fill="#f9fafa"/><line x1="86.48" y1="115.66" x2="816.27" y2="115.66" fill="none" stroke="#ededed" stroke-width="3" stroke-miterlimit="10"/><line x1="86.48" y1="234.15" x2="816.27" y2="234.15" fill="none" stroke="#ededed" stroke-width="3" stroke-miterlimit="10"/><line x1="86.48" y1="358.92" x2="816.27" y2="358.92" fill="none" stroke="#ededed" stroke-width="3" stroke-miterlimit="10"/><line x1="86.48" y1="483.7" x2="816.27" y2="483.7" fill="none" stroke="#ededed" stroke-width="3" stroke-miterlimit="10"/><path d="M224.3,651.06v-287.3c0,0,58.7-59.76,74.45,37.74s86,71.31,86,71.31s62.91-98.57,151,0s136.25,133.19,195,100.66c0,0,51.38-32.51,163.57,77.59Z" transform="translate(-100.07-167.36)" fill="#ededed"/><path d="M1678.69,314.38c4.122489-30.709181-4.153858-61.795861-23-86.39-39.09-50.86-113.1-60.54-164-21.44s-60.53,113.11-21.44,164c18.931619,24.545533,46.859281,40.540696,77.61,44.45" transform="translate(-100.07-167.36)" fill="none" stroke="#ededed" stroke-width="30" stroke-miterlimit="10"/><path d="M1661.29,362.32c28.93-45.19,23.73-106.59-15.63-145.94-21.946335-21.870841-51.696709-34.104909-82.68-34" transform="translate(-100.07-167.36)" fill="none" stroke="#8536cf" stroke-width="30" stroke-linecap="round" stroke-linejoin="round"/><path d="M1531.28,411.44c39.42,10.95,83.63,1,114.38-29.71c5.897367-5.885039,11.138099-12.393202,15.63-19.41" transform="translate(-100.07-167.36)" fill="none" stroke="#8536cf" stroke-width="30" stroke-linecap="round" stroke-linejoin="round"/><path d="M555.53,1468.39c14.603757,25.113426,18.612046,55.006482,11.14,83.08-15.57,58.09-76.18,93.08-134.27,77.52s-93.08-76.18-77.52-134.27c1.701262-6.330106,3.967011-12.494817,6.77-18.42" transform="translate(-100.07-167.36)" fill="none" stroke="#ededed" stroke-width="30" stroke-miterlimit="10"/><path d="M352.18,1538.48c-1.95034-14.277843-1.032423-28.801321,2.7-42.72c15.57-58.09,76.18-93.08,134.27-77.52c28.049057,7.566227,51.933368,25.984996,66.38,51.19" transform="translate(-100.07-167.36)" fill="none" stroke="#8536cf" stroke-width="30" stroke-linecap="round" stroke-linejoin="round"/><path d="M432.22,1627.93c-43.77-11.73-74.42-49-80.22-91.55" transform="translate(-100.07-167.36)" fill="none" stroke="#8536cf" stroke-width="30" stroke-linecap="round" stroke-linejoin="round"/><rect width="55.57" height="178.72" rx="0" ry="0" transform="translate(1108.81 438.15)" fill="#eaeae9"/><rect width="55.57" height="137.04" rx="0" ry="0" transform="translate(1194.99 479.83)" fill="#eaeae9"/><rect width="55.57" height="81.04" rx="0" ry="0" transform="translate(1276.69 535.82)" fill="#eaeae9"/></g><g id="eXrPpOSicAk18" transform="translate(.000007-.00002)"><path d="M432.22,1627.93c-43.77-11.73-74.42-49-80.22-91.55" transform="translate(-100.07-167.36)" fill="none" stroke="#8536cf" stroke-width="30" stroke-linecap="round" stroke-linejoin="round"/></g><g id="eXrPpOSicAk20" transform="translate(.000005 0)"><path d="M1531.28,411.44c39.42,10.95,83.63,1,114.38-29.71c5.897367-5.885039,11.138099-12.393202,15.63-19.41" transform="translate(-100.07-167.36)" fill="none" stroke="#8536cf" stroke-width="30" stroke-linecap="round" stroke-linejoin="round"/></g><g id="eXrPpOSicAk22" transform="matrix(1 0 0 0.139067 0 1178.634496)"><path d="M169.08,1486.75c0,0,250.25-455.07,594.17-27.26s658.49-1084.2,1094.68-750.76" transform="translate(-100.07-167.36)" fill="none" stroke="#4bb3fd" stroke-width="2" stroke-linecap="round" stroke-linejoin="round"/></g><g><line x1="0.5" y1="1687.08" x2="1818.67" y2="1687.08" fill="none" stroke="#231f20" stroke-linecap="round" stroke-linejoin="round"/><path d="M834.55,1854.44c0,0-44-312.12,25.17-390.76c0,0,13.63-24.12,44-87c0,0,221.24-19.92,343.92-47.18c0,0,148.89,51.72,74.45,525Z" transform="translate(-100.07-167.36)" fill="#011627"/><path d="M903.76,1376.65c1.63375-17.321562,1.63375-34.758438,0-52.08s227.88-16.07,332-39.84c0,0,1.39,26.56,11.88,44.74.04,0-90.83,24.46-343.88,47.18Z" transform="translate(-100.07-167.36)" fill="#011627"/><path d="M1244.18,1329.47c0,0-190.37,44.56-340.42,39.4" transform="translate(-100.07-167.36)" fill="none" stroke="#314850" stroke-width="5" stroke-linecap="round" stroke-linejoin="round"/><path d="M903.76,1324.57c0,0-62.22-193.63-93-267c0,0-42.64,42.64-66.41,91.58c0,0-21.67,37.05-51,55.22l7.69,15.38c0,0-43.34,7.69-102.76,53.12c0,0-71.3-51.72-47.53-95.06c0,0,188.74-336.24,234.87-332.74c0,0,18.88-14,100-60.82c0,0,1.75-12.23,16.78-29c0,0-1.4,29,6.29,31.81s163.57,167.07,161.48,167.07s24.46-41.25-16.08-198.88c0,0,30.76,15.73,37.75,33.91c0,0,74.09,7.69,128.62,24.46c0,0,25.86,5.59,225.78,170.57c0,0,10.49-48.94,25.17-33.56c0,0,35.65,30.31,88.08,49.41c0,0,28.66,35.17-9.09,79.91c0,0,7,69.21-86,37c0,0-83.19-32.15-216.7-107c0,0-24.47,164.27-11.88,274.72-.02.06-80.41,21.73-332.06,39.9Z" transform="translate(-100.07-167.36)" fill="#e1e2e1"/><path d="M702.31,1221c5.64,5.77,28.37,29.28,31.72,37.69.455682,1.172.150571,2.503392-.77,3.36-5.12,4.94-29.65,27-102.6,72.72-1.328709.836867-3.07135.563511-4.08-.64-7.33-8.71-35.16-42.14-39.31-51.76-.319456-.771574-.319456-1.638426,0-2.41.79-2,3.19-5.79,10.19-7c.549074-.085174,1.066248-.312731,1.5-.66c5.84-4.71,50.05-39.41,100.36-52.16c1.078378-.251736,2.210161.073793,2.99.86Z" transform="translate(-100.07-167.36)" fill="#e0e3e1"/><path d="M667.49,1143.52c25.86,21.32,25.86,60.82,25.86,60.82s-24.82-21.67-60.82-25.17" transform="translate(-100.07-167.36)" fill="none" stroke="#4a4f4f" stroke-width="3" stroke-linecap="round" stroke-linejoin="round"/><path d="M608.07,1248c0,0,28-23.77,93-28.31" transform="translate(-100.07-167.36)" fill="none" stroke="#a1a1a1" stroke-width="4" stroke-linecap="round" stroke-linejoin="round"/><path d="M1115.32,1304.49c0,0,25.18-22.32,35.89-47" transform="translate(-100.07-167.36)" fill="none" stroke="#4a4f4f" stroke-width="3" stroke-linecap="round" stroke-linejoin="round"/><path d="M926.83,889c0,0,6.64,16,21.17,24.54c0,0-1.05-7.34,1.57-18.35c0,0,37.56,10.94,119.27,58c0,0-76-52.22-127.31-92.06-.03-.01-9.53,7.36-14.7,27.87Z" transform="translate(-100.07-167.36)" fill="#9c9d9e"/><path d="M1118.48,874c0,0,2.15,17.49-3.18,20.38c0,0-2.44-10.86-15.68-19.15c0,0,.83-14-2.23-25.33Z" transform="translate(-100.07-167.36)" fill="#9c9d9e"/><path d="M1091.8,789.12c0,0,35.65,63.61,33.55,92.27c0,0-15.38-16.08-28-31.46c0,0,14,51-27.26,104.16c0,0-80.39-55.23-128.63-93c0,0-15.37,14-16.77,42.64c0,0-32.86-58.72-39.15-119.54" transform="translate(-100.07-167.36)" fill="none" stroke="#575b5d" stroke-width="3" stroke-linecap="round" stroke-linejoin="round"/><path d="M1133.27,1249.37c-36.12-265.33-63.14-295.28-63.14-295.28" transform="translate(-100.07-167.36)" fill="none" stroke="#231f20" stroke-linecap="round" stroke-linejoin="round"/><path d="M1136.05,1243.61c0,0,4.82,7.64,3.35,34" transform="translate(-100.07-167.36)" fill="none" stroke="#231f20" stroke-linecap="round" stroke-linejoin="round"/><path d="M1128.54,1291c0,0,2,3.74,0,11.76" transform="translate(-100.07-167.36)" fill="none" stroke="#231f20" stroke-linecap="round" stroke-linejoin="round"/><path d="M1076,1077.39c0,0,3,96.89-67.34,83.44.02,0,54.14-18.4,67.34-83.44Z" transform="translate(-100.07-167.36)" fill="#9c9d9e"/><path d="M1007.21,1161.35c0,0,82.14-26.21,70.61-134.56" transform="translate(-100.07-167.36)" fill="none" stroke="#4a4f4f" stroke-width="3" stroke-linecap="round" stroke-linejoin="round"/><path d="M808.5,1059.9c0,0-49-40.82-33.35-78.68c0,0,32.78,66.26,35.9,76.94-.953447.411599-1.819088,1.002272-2.55,1.74Z" transform="translate(-100.07-167.36)" fill="#9c9d9e"/><path d="M810.79,1057.54c0,0-26.22-61.16-43.17-90" transform="translate(-100.07-167.36)" fill="none" stroke="#4a4f4f" stroke-width="3" stroke-linecap="round" stroke-linejoin="round"/><path d="M1137.23,1246.52c0,0,62.22-86.45,47.07-103.93c0,0-18.88-13.34-43.46,90.61l-5.13,11.12c0,0,.75-.71,1.52,2.2Z" transform="translate(-100.07-167.36)" fill="#9c9d9e"/><path d="M1102.14,1306.11c0,0,46.74-76.14,52.8-114.82" transform="translate(-100.07-167.36)" fill="none" stroke="#4a4f4f" stroke-width="3" stroke-linecap="round" stroke-linejoin="round"/><path d="M1238.83,903.32c0,0,28.85,41.68,9.07,107.27c0,0,4.91-13.59-9.07-107.27Z" transform="translate(-100.07-167.36)" fill="#9c9d9e"/><path d="M1234.05,880.69c16.66,70.6,13.63,129.32,13.63,129.32" transform="translate(-100.07-167.36)" fill="none" stroke="#4a4f4f" stroke-width="3" stroke-linecap="round" stroke-linejoin="round"/><path d="M1446.2,984.15c0,0,27,58.95,52.43,67.1s26.1,9.56,25.17,21.91-27.73-1.64-31.23-7.46c0,0-35.88-22.14-46.37-81.55Z" transform="translate(-100.07-167.36)" fill="#9c9d9e"/><path d="M1459.66,1041.47c0,0-9-.7-13.46-57.32c0,0,13.81,41.76,32,52.42" transform="translate(-100.07-167.36)" fill="none" stroke="#4a4f4f" stroke-width="3" stroke-linecap="round" stroke-linejoin="round"/><path d="M1471.37,950.59c0,0,19.57-15.61-2.8-172.66c0,0-18.17-58.72,7.46-81.09c0,0,2.79-48.93,9.09-37.28c0,0,8.15,6.53,11,22.84c0,0,5.12-21.9,16.77-28c0,0,34.49-16.78,14.92,26.09c0,0,21.9-1.63,16.77,20c0,0,20.28-4.66,22.37,16.78c0,0,17.25,6.29,7,26.1c0,0,2.57,35.88-27.72,56.15c0,0,9.55,208.1,13.28,200.4-.06.08-47.6-17.17-88.14-49.33Z" transform="translate(-100.07-167.36)" fill="#fabb9c"/><path d="M1507.72,761.16c0,0-1.17-17.48-23.77-35.42" transform="translate(-100.07-167.36)" fill="none" stroke="#eeae87" stroke-width="3" stroke-linecap="round" stroke-linejoin="round"/><path d="M1504,707.33c-28.19,5.83-16.08-14.45-16.08-14.45" transform="translate(-100.07-167.36)" fill="none" stroke="#eeae87" stroke-width="3" stroke-linecap="round" stroke-linejoin="round"/><path d="M1527.76,680.53l-28.43,33.32c0,0-9.32,26.33,18.41,18.88l26.79-32.16" transform="translate(-100.07-167.36)" fill="none" stroke="#eeae87" stroke-width="3" stroke-linecap="round" stroke-linejoin="round"/><path d="M1558.05,725.74l-31.69,29.47c0,0-31.46,2.92-8.62-22.48" transform="translate(-100.07-167.36)" fill="none" stroke="#eeae87" stroke-width="3" stroke-linecap="round" stroke-linejoin="round"/><path d="M1568.77,748.46l-28.43,23.06c0,0-19.46,3-14-16.31" transform="translate(-100.07-167.36)" fill="none" stroke="#eeae87" stroke-width="3" stroke-linecap="round" stroke-linejoin="round"/><path d="M1475.91,651.2c0,0,21.91-9.23,28.08-44.88c0,0,5.26-34.25-6.17-60.82c0,0-9.67-41.59-37.29-48.93c0,0,23.42-13.28,40.55,30.06c0,0,12.58,21.67,12.58,53.48c0,0,3.15,35.65-5.94,49.63c0,0-6.29,21.96-31.81,21.46Z" transform="translate(-100.07-167.36)" fill="#1b252d"/><path d="M1460.53,496.57c0,0-17.12-5.59-32.15,17.13c0,0-13.28,18.17-9.79,69.55c0,0,9.44,66.72,37.4,68h19.92c0,0-20.27-4.34-30.75-42.08s-12.94-81.84,15.37-112.6Z" transform="translate(-100.07-167.36)" fill="#355b65"/><path d="" transform="translate(-100.07-167.36)" fill="none" stroke="#231f20" stroke-linecap="round" stroke-linejoin="round"/><path d="M1494.28,646.63c0,0,5.53,10.47,11.15,14.57c0,0-7.12,10.07-9.36,21.2c0,0-3.35-13.42-6.51-17.52c0,0-4.43-6.24-6.33-7.11l-7.32-6.57c0,0,12.6-.01,18.37-4.57Z" transform="translate(-100.07-167.36)" fill="#355963"/><circle r="32.73" transform="translate(1020.67 491.06)" fill="none" stroke="#cedfe3" stroke-width="4" stroke-linecap="round" stroke-linejoin="round"/><path d="M899.56,654.44c0,0,6.53,56.85-46.13,61s-57.15-50.28-57.15-50.28-6.29-49.8,48.23-55c0,0-43.74-44.28-5.06-131.42s146.33-93.21,180.35-92.27s83.06,26.56,100.94,85.28s24.25,132.47-2.46,164.56-95.22,4.15-218.72,18.13Z" transform="translate(-100.07-167.36)" fill="#182f37"/><path d="M862.75,614.36c0,0-78.75-117.44,108.11-215.3" transform="translate(-100.07-167.36)" fill="none" stroke="#345258" stroke-width="5" stroke-linecap="round" stroke-linejoin="round"/><path d="M862.64,605.5c0,0-13.41-124.89,147.84-210.17" transform="translate(-100.07-167.36)" fill="none" stroke="#345258" stroke-width="5" stroke-linecap="round" stroke-linejoin="round"/><path d="M889.22,577.76c0,0,93.29-103.21,142.23-175" transform="translate(-100.07-167.36)" fill="none" stroke="#bcc6cb" stroke-width="4" stroke-linecap="round" stroke-linejoin="round"/><path d="M864.06,623.7c0,0-47.53,9.39-56.54,66.39" transform="translate(-100.07-167.36)" fill="none" stroke="#345258" stroke-width="5" stroke-linecap="round" stroke-linejoin="round"/><path d="M902.36,755.21c0,0,4.19-72.81-2.8-100.77c0,0-34.48-1.4-36.81-40.08s33.55-46.14,42.87-25.17c0,0,65.24-58.48,139.34-177.08c0,0,78.69,34.48,74,107.88c0,0,8.89,128.62-12.43,165.32s-60.82,64-145.75,21c0,0,22,44,92.62,40.89l.7,8c0,0,40,132.75,14.76,198c0,0-130.1-142.63-160.16-166.16-.05-.04-7.48,1.37-6.34-31.83Z" transform="translate(-100.07-167.36)" fill="#fabfa0"/><path d="M1053.35,747.17c0,0-1.45-13.4,1.46-20.86c0,0-32.68,11.08-94.08-20c0-.03,22.02,44.83,92.62,40.86Z" transform="translate(-100.07-167.36)" fill="#f69673"/><path d="M846.27,713.18c0,0-7.9-27.06.12-43.25" transform="translate(-100.07-167.36)" fill="none" stroke="#345258" stroke-width="5" stroke-linecap="round" stroke-linejoin="round"/><path d="M884.88,633.93c0,0-27-22.78,2.45-39.14" transform="translate(-100.07-167.36)" fill="none" stroke="#f3a780" stroke-width="5" stroke-linecap="round" stroke-linejoin="round"/><path d="M1067.33,532.57c0,0,13-14.3,32.85-1.74" transform="translate(-100.07-167.36)" fill="none" stroke="#1b2c31" stroke-width="4" stroke-linecap="round" stroke-linejoin="round"/><path d="M973.66,539.91c0,0,14-15.38,34.11-1.74" transform="translate(-100.07-167.36)" fill="none" stroke="#1b2c31" stroke-width="4" stroke-linecap="round" stroke-linejoin="round"/><path d="M1064.36,492.73c0,0,17.3-4.2,32.68,0-.04,0-16.6-25.17-32.68,0Z" transform="translate(-100.07-167.36)" fill="#1b2c31"/><path d="M973.66,527.16c0,0,4.72-5.6,32.33-2.8.01,0-15.55-24.64-32.33,2.8Z" transform="translate(-100.07-167.36)" fill="#1b2c31"/><circle r="9" transform="translate(896.92 388.79)" fill="#0f1c23"/><circle r="9" transform="translate(989.63 386.97)" fill="#0f1c23"/><path d="M1038.67,530.48c0,0,58.37,100.83,7.51,80.73" transform="translate(-100.07-167.36)" fill="none" stroke="#352619" stroke-width="4" stroke-linecap="round" stroke-linejoin="round"/><path d="M1039.25,645.6c0,0-4,10.58-19.34,4.76s-9.85-23.16-1.89-19c0,0-.55-9.56,8.3-7.23s20.15,10.99,12.93,21.47Z" transform="translate(-100.07-167.36)" fill="#f6986e"/><path d="M1015.08,621.7c0,0,1.57,24.12,29.88,24.29" transform="translate(-100.07-167.36)" fill="none" stroke="#352619" stroke-width="4" stroke-linecap="round" stroke-linejoin="round"/><path d="M1466.94,586.86c0,0-6.29-56.62,0-65.94c0,0,5.19,31.98,0,65.94Z" transform="translate(-100.07-167.36)" fill="#efefef"/><path d="M1477.83,616.81c0,0-10.13-.35-1.92-69c0-.03,6.99,46.1,1.92,69Z" transform="translate(-100.07-167.36)" fill="#efefef"/><path d="" transform="translate(-100.07-167.36)" fill="none" stroke="#231f20" stroke-linecap="round" stroke-linejoin="round"/><circle r="32.73" transform="translate(778.93 506.19)" fill="none" stroke="#cedfe3" stroke-width="4" stroke-linecap="round" stroke-linejoin="round"/><path d="M903.76,1583.91c0,0,39.14-32.85,66.41-90.87" transform="translate(-100.07-167.36)" fill="none" stroke="#314850" stroke-width="5" stroke-linecap="round" stroke-linejoin="round"/><path d="M729.14,1265.81c0,0,81.88,98.37,107,133.33c0,0,5.13-1.87,14,0c0,0,34-44.28,67.1-60.12c0,0,63.38-1.86,52.2,11.18c0,0-7,4.78-23.6,17.54c0,0,18.18,8.39,36.35,6.29s11,11,0,14.68c0,0,29,5.77-5.24,16.08-15.140627,1.952782-30.469373,1.952782-45.61,0s-9.26.35-27.61,11c0,0,52.6-.53,65.18,4.19s-10.66,22.37-59.07,17.48c0,0-43,31.63-73.22,34.42s-189.91-147.32-189.91-147.32s72.43-47.26,82.43-58.75Z" transform="translate(-100.07-167.36)" fill="#fabe9c"/></g><g id="eXrPpOSicAk85" transform="matrix(1 0 0 0.253966 0 1256.530146)"><rect width="114.64" height="1125.44" rx="2" ry="2" transform="translate(1558.64 558.84)" fill="#8536cf"/></g><g id="eXrPpOSicAk87" transform="matrix(1 0 0 0.654891 0.000009 581.260187)"><rect width="114.64" height="698.33" rx="2" ry="2" transform="translate(1305.59 985.95)" fill="#4bb3fd"/></g><g id="eXrPpOSicAk89" transform="matrix(1 0 0 0.105757 0 1506.1556)"><rect width="114.64" height="226.49" rx="2" ry="2" transform="translate(69 1457.8)" fill="#8536cf"/></g><g id="eXrPpOSicAk91"><rect width="114.64" height="132.12" rx="2" ry="2" transform="translate(324.85 1552.17)" fill="#4bb3fd"/></g><g id="eXrPpOSicAk93" transform="matrix(0 0 0 0 1617.990051 491.029984)"><circle r="21.67" transform="translate(1617.99 491.03)" fill="#011627"/><circle r="41.07" transform="translate(1617.99 491.03)" fill="none" stroke="#011627" stroke-width="5" stroke-linecap="round" stroke-linejoin="round"/></g><g id="eXrPpOSicAk96" transform="matrix(0 0 0 0 365.219986 1119.2901)"><circle r="21.67" transform="translate(365.22 1119.29)" fill="#011627"/><circle r="41.07" transform="translate(365.22 1119.29)" fill="none" stroke="#011627" stroke-width="5" stroke-linecap="round" stroke-linejoin="round"/></g><g id="eXrPpOSicAk99"><rect width="114.64" height="306.17" rx="2" ry="2" transform="translate(565.32 1378.11)" fill="#8536cf"/></g><script><![CDATA[!function(t,n){"object"==typeof exports&&"undefined"!=typeof module?module.exports=n():"function"==typeof define&&define.amd?define(n):((t="undefined"!=typeof globalThis?globalThis:t||self).__SVGATOR_PLAYER__=t.__SVGATOR_PLAYER__||{},t.__SVGATOR_PLAYER__["5c7f360c"]=n())}(this,(function(){"use strict";function t(t,n){var r=Object.keys(t);if(Object.getOwnPropertySymbols){var e=Object.getOwnPropertySymbols(t);n&&(e=e.filter((function(n){return Object.getOwnPropertyDescriptor(t,n).enumerable}))),r.push.apply(r,e)}return r}function n(n){for(var r=1;r<arguments.length;r++){var e=null!=arguments[r]?arguments[r]:{};r%2?t(Object(e),!0).forEach((function(t){u(n,t,e[t])})):Object.getOwnPropertyDescriptors?Object.defineProperties(n,Object.getOwnPropertyDescriptors(e)):t(Object(e)).forEach((function(t){Object.defineProperty(n,t,Object.getOwnPropertyDescriptor(e,t))}))}return n}function r(t){return(r="function"==typeof Symbol&&"symbol"==typeof Symbol.iterator?function(t){return typeof t}:function(t){return t&&"function"==typeof Symbol&&t.constructor===Symbol&&t!==Symbol.prototype?"symbol":typeof t})(t)}function e(t,n){if(!(t instanceof n))throw new TypeError("Cannot call a class as a function")}function i(t,n){for(var r=0;r<n.length;r++){var e=n[r];e.enumerable=e.enumerable||!1,e.configurable=!0,"value"in e&&(e.writable=!0),Object.defineProperty(t,e.key,e)}}function o(t,n,r){return n&&i(t.prototype,n),r&&i(t,r),t}function u(t,n,r){return n in t?Object.defineProperty(t,n,{value:r,enumerable:!0,configurable:!0,writable:!0}):t[n]=r,t}function a(t){return(a=Object.setPrototypeOf?Object.getPrototypeOf:function(t){return t.__proto__||Object.getPrototypeOf(t)})(t)}function l(t,n){return(l=Object.setPrototypeOf||function(t,n){return t.__proto__=n,t})(t,n)}function f(){if("undefined"==typeof Reflect||!Reflect.construct)return!1;if(Reflect.construct.sham)return!1;if("function"==typeof Proxy)return!0;try{return Boolean.prototype.valueOf.call(Reflect.construct(Boolean,[],(function(){}))),!0}catch(t){return!1}}function s(t,n,r){return(s=f()?Reflect.construct:function(t,n,r){var e=[null];e.push.apply(e,n);var i=new(Function.bind.apply(t,e));return r&&l(i,r.prototype),i}).apply(null,arguments)}function c(t,n){if(n&&("object"==typeof n||"function"==typeof n))return n;if(void 0!==n)throw new TypeError("Derived constructors may only return object or undefined");return function(t){if(void 0===t)throw new ReferenceError("this hasn't been initialised - super() hasn't been called");return t}(t)}function h(t,n,r){return(h="undefined"!=typeof Reflect&&Reflect.get?Reflect.get:function(t,n,r){var e=function(t,n){for(;!Object.prototype.hasOwnProperty.call(t,n)&&null!==(t=a(t)););return t}(t,n);if(e){var i=Object.getOwnPropertyDescriptor(e,n);return i.get?i.get.call(r):i.value}})(t,n,r||t)}function v(t){return function(t){if(Array.isArray(t))return y(t)}(t)||function(t){if("undefined"!=typeof Symbol&&null!=t[Symbol.iterator]||null!=t["@@iterator"])return Array.from(t)}(t)||function(t,n){if(!t)return;if("string"==typeof t)return y(t,n);var r=Object.prototype.toString.call(t).slice(8,-1);"Object"===r&&t.constructor&&(r=t.constructor.name);if("Map"===r||"Set"===r)return Array.from(t);if("Arguments"===r||/^(?:Ui|I)nt(?:8|16|32)(?:Clamped)?Array$/.test(r))return y(t,n)}(t)||function(){throw new TypeError("Invalid attempt to spread non-iterable instance.\nIn order to be iterable, non-array objects must have a [Symbol.iterator]() method.")}()}function y(t,n){(null==n||n>t.length)&&(n=t.length);for(var r=0,e=new Array(n);r<n;r++)e[r]=t[r];return e}var g=d(Math.pow(10,-6));function d(t){var n=arguments.length>1&&void 0!==arguments[1]?arguments[1]:6;if(Number.isInteger(t))return t;var r=Math.pow(10,n);return Math.round((+t+Number.EPSILON)*r)/r}function p(t,n){var r=arguments.length>2&&void 0!==arguments[2]?arguments[2]:g;return Math.abs(t-n)<r}var m=Math.PI/180;function b(t){return t}function w(t,n,r){var e=1-r;return 3*r*e*(t*e+n*r)+r*r*r}function A(){var t=arguments.length>0&&void 0!==arguments[0]?arguments[0]:0,n=arguments.length>1&&void 0!==arguments[1]?arguments[1]:0,r=arguments.length>2&&void 0!==arguments[2]?arguments[2]:1,e=arguments.length>3&&void 0!==arguments[3]?arguments[3]:1;return t<0||t>1||r<0||r>1?null:p(t,n)&&p(r,e)?b:function(i){if(i<=0)return t>0?i*n/t:0===n&&r>0?i*e/r:0;if(i>=1)return r<1?1+(i-1)*(e-1)/(r-1):1===r&&t<1?1+(i-1)*(n-1)/(t-1):1;for(var o,u=0,a=1;u<a;){var l=w(t,r,o=(u+a)/2);if(p(i,l))break;l<i?u=o:a=o}return w(n,e,o)}}function x(){return 1}function k(t){return 1===t?1:0}function S(){var t=arguments.length>0&&void 0!==arguments[0]?arguments[0]:1,n=arguments.length>1&&void 0!==arguments[1]?arguments[1]:0;if(1===t){if(0===n)return k;if(1===n)return x}var r=1/t;return function(t){return t>=1?1:(t+=n*r)-t%r}}var _=Math.sin,O=Math.cos,j=Math.acos,M=Math.asin,P=Math.tan,E=Math.atan2,I=Math.PI/180,R=180/Math.PI,F=Math.sqrt,N=function(){function t(){var n=arguments.length>0&&void 0!==arguments[0]?arguments[0]:1,r=arguments.length>1&&void 0!==arguments[1]?arguments[1]:0,i=arguments.length>2&&void 0!==arguments[2]?arguments[2]:0,o=arguments.length>3&&void 0!==arguments[3]?arguments[3]:1,u=arguments.length>4&&void 0!==arguments[4]?arguments[4]:0,a=arguments.length>5&&void 0!==arguments[5]?arguments[5]:0;e(this,t),this.m=[n,r,i,o,u,a],this.i=null,this.w=null,this.s=null}return o(t,[{key:"determinant",get:function(){var t=this.m;return t[0]*t[3]-t[1]*t[2]}},{key:"isIdentity",get:function(){if(null===this.i){var t=this.m;this.i=1===t[0]&&0===t[1]&&0===t[2]&&1===t[3]&&0===t[4]&&0===t[5]}return this.i}},{key:"point",value:function(t,n){var r=this.m;return{x:r[0]*t+r[2]*n+r[4],y:r[1]*t+r[3]*n+r[5]}}},{key:"translateSelf",value:function(){var t=arguments.length>0&&void 0!==arguments[0]?arguments[0]:0,n=arguments.length>1&&void 0!==arguments[1]?arguments[1]:0;if(!t&&!n)return this;var r=this.m;return r[4]+=r[0]*t+r[2]*n,r[5]+=r[1]*t+r[3]*n,this.w=this.s=this.i=null,this}},{key:"rotateSelf",value:function(){var t=arguments.length>0&&void 0!==arguments[0]?arguments[0]:0;if(t%=360){var n=_(t*=I),r=O(t),e=this.m,i=e[0],o=e[1];e[0]=i*r+e[2]*n,e[1]=o*r+e[3]*n,e[2]=e[2]*r-i*n,e[3]=e[3]*r-o*n,this.w=this.s=this.i=null}return this}},{key:"scaleSelf",value:function(){var t=arguments.length>0&&void 0!==arguments[0]?arguments[0]:1,n=arguments.length>1&&void 0!==arguments[1]?arguments[1]:1;if(1!==t||1!==n){var r=this.m;r[0]*=t,r[1]*=t,r[2]*=n,r[3]*=n,this.w=this.s=this.i=null}return this}},{key:"skewSelf",value:function(t,n){if(n%=360,(t%=360)||n){var r=this.m,e=r[0],i=r[1],o=r[2],u=r[3];t&&(t=P(t*I),r[2]+=e*t,r[3]+=i*t),n&&(n=P(n*I),r[0]+=o*n,r[1]+=u*n),this.w=this.s=this.i=null}return this}},{key:"resetSelf",value:function(){var t=arguments.length>0&&void 0!==arguments[0]?arguments[0]:1,n=arguments.length>1&&void 0!==arguments[1]?arguments[1]:0,r=arguments.length>2&&void 0!==arguments[2]?arguments[2]:0,e=arguments.length>3&&void 0!==arguments[3]?arguments[3]:1,i=arguments.length>4&&void 0!==arguments[4]?arguments[4]:0,o=arguments.length>5&&void 0!==arguments[5]?arguments[5]:0,u=this.m;return u[0]=t,u[1]=n,u[2]=r,u[3]=e,u[4]=i,u[5]=o,this.w=this.s=this.i=null,this}},{key:"recomposeSelf",value:function(){var t=arguments.length>0&&void 0!==arguments[0]?arguments[0]:null,n=arguments.length>1&&void 0!==arguments[1]?arguments[1]:null,r=arguments.length>2&&void 0!==arguments[2]?arguments[2]:null,e=arguments.length>3&&void 0!==arguments[3]?arguments[3]:null,i=arguments.length>4&&void 0!==arguments[4]?arguments[4]:null;return this.isIdentity||this.resetSelf(),t&&(t.x||t.y)&&this.translateSelf(t.x,t.y),n&&this.rotateSelf(n),r&&(r.x&&this.skewSelf(r.x,0),r.y&&this.skewSelf(0,r.y)),!e||1===e.x&&1===e.y||this.scaleSelf(e.x,e.y),i&&(i.x||i.y)&&this.translateSelf(i.x,i.y),this}},{key:"decompose",value:function(){var t=arguments.length>0&&void 0!==arguments[0]?arguments[0]:0,n=arguments.length>1&&void 0!==arguments[1]?arguments[1]:0,r=this.m,e=r[0]*r[0]+r[1]*r[1],i=[[r[0],r[1]],[r[2],r[3]]],o=F(e);if(0===o)return{origin:{x:d(r[4]),y:d(r[5])},translate:{x:d(t),y:d(n)},scale:{x:0,y:0},skew:{x:0,y:0},rotate:0};i[0][0]/=o,i[0][1]/=o;var u=r[0]*r[3]-r[1]*r[2]<0;u&&(o=-o);var a=i[0][0]*i[1][0]+i[0][1]*i[1][1];i[1][0]-=i[0][0]*a,i[1][1]-=i[0][1]*a;var l=F(i[1][0]*i[1][0]+i[1][1]*i[1][1]);if(0===l)return{origin:{x:d(r[4]),y:d(r[5])},translate:{x:d(t),y:d(n)},scale:{x:d(o),y:0},skew:{x:0,y:0},rotate:0};i[1][0]/=l,i[1][1]/=l,a/=l;var f=0;return i[1][1]<0?(f=j(i[1][1])*R,i[0][1]<0&&(f=360-f)):f=M(i[0][1])*R,u&&(f=-f),a=E(a,F(i[0][0]*i[0][0]+i[0][1]*i[0][1]))*R,u&&(a=-a),{origin:{x:d(r[4]),y:d(r[5])},translate:{x:d(t),y:d(n)},scale:{x:d(o),y:d(l)},skew:{x:d(a),y:0},rotate:d(f)}}},{key:"clone",value:function(){var t=this.m;return new this.constructor(t[0],t[1],t[2],t[3],t[4],t[5])}},{key:"toString",value:function(){var t=arguments.length>0&&void 0!==arguments[0]?arguments[0]:" ";if(null===this.s){var n=this.m.map((function(t){return d(t)}));1===n[0]&&0===n[1]&&0===n[2]&&1===n[3]?this.s="translate("+n[4]+t+n[5]+")":this.s="matrix("+n.join(t)+")"}return this.s}}],[{key:"create",value:function(t){return t?Array.isArray(t)?s(this,v(t)):t instanceof this?t.clone():(new this).recomposeSelf(t.origin,t.rotate,t.skew,t.scale,t.translate):new this}}]),t}();function T(t,n,r){return t>=.5?r:n}function B(t,n,r){return 0===t||n===r?n:t*(r-n)+n}function q(t,n,r){var e=B(t,n,r);return e<=0?0:e}function L(t,n,r){var e=B(t,n,r);return e<=0?0:e>=1?1:e}function C(t,n,r){return 0===t?n:1===t?r:{x:B(t,n.x,r.x),y:B(t,n.y,r.y)}}function D(t,n,r){var e=function(t,n,r){return Math.round(B(t,n,r))}(t,n,r);return e<=0?0:e>=255?255:e}function z(t,n,r){return 0===t?n:1===t?r:{r:D(t,n.r,r.r),g:D(t,n.g,r.g),b:D(t,n.b,r.b),a:B(t,null==n.a?1:n.a,null==r.a?1:r.a)}}function V(t,n){for(var r=[],e=0;e<t;e++)r.push(n);return r}function G(t,n){if(--n<=0)return t;var r=(t=Object.assign([],t)).length;do{for(var e=0;e<r;e++)t.push(t[e])}while(--n>0);return t}var Y,$=function(){function t(n){e(this,t),this.list=n,this.length=n.length}return o(t,[{key:"setAttribute",value:function(t,n){for(var r=this.list,e=0;e<this.length;e++)r[e].setAttribute(t,n)}},{key:"removeAttribute",value:function(t){for(var n=this.list,r=0;r<this.length;r++)n[r].removeAttribute(t)}},{key:"style",value:function(t,n){for(var r=this.list,e=0;e<this.length;e++)r[e].style[t]=n}}]),t}(),U=/-./g,Q=function(t,n){return n.toUpperCase()};function H(t){return"function"==typeof t?t:T}function J(t){return t?"function"==typeof t?t:Array.isArray(t)?function(t){var n=arguments.length>1&&void 0!==arguments[1]?arguments[1]:b;if(!Array.isArray(t))return n;switch(t.length){case 1:return S(t[0])||n;case 2:return S(t[0],t[1])||n;case 4:return A(t[0],t[1],t[2],t[3])||n}return n}(t,null):function(t,n){var r=arguments.length>2&&void 0!==arguments[2]?arguments[2]:b;switch(t){case"linear":return b;case"steps":return S(n.steps||1,n.jump||0)||r;case"bezier":case"cubic-bezier":return A(n.x1||0,n.y1||0,n.x2||0,n.y2||0)||r}return r}(t.type,t.value,null):null}function Z(t,n,r){var e=arguments.length>3&&void 0!==arguments[3]&&arguments[3],i=n.length-1;if(t<=n[0].t)return e?[0,0,n[0].v]:n[0].v;if(t>=n[i].t)return e?[i,1,n[i].v]:n[i].v;var o,u=n[0],a=null;for(o=1;o<=i;o++){if(!(t>n[o].t)){a=n[o];break}u=n[o]}return null==a?e?[i,1,n[i].v]:n[i].v:u.t===a.t?e?[o,1,a.v]:a.v:(t=(t-u.t)/(a.t-u.t),u.e&&(t=u.e(t)),e?[o,t,r(t,u.v,a.v)]:r(t,u.v,a.v))}function K(t,n){var r=arguments.length>2&&void 0!==arguments[2]?arguments[2]:null;return t&&t.length?"function"!=typeof n?null:("function"!=typeof r&&(r=null),function(e){var i=Z(e,t,n);return null!=i&&r&&(i=r(i)),i}):null}function W(t,n){return t.t-n.t}function X(t,n,e,i,o){var u,a="@"===e[0],l="#"===e[0],f=Y[e],s=T;switch(a?(u=e.substr(1),e=u.replace(U,Q)):l&&(e=e.substr(1)),r(f)){case"function":if(s=f(i,o,Z,J,e,a,n,t),l)return s;break;case"string":s=K(i,H(f));break;case"object":if((s=K(i,H(f.i),f.f))&&"function"==typeof f.u)return f.u(n,s,e,a,t)}return s?function(t,n,r){if(arguments.length>3&&void 0!==arguments[3]&&arguments[3])return t instanceof $?function(e){return t.style(n,r(e))}:function(e){return t.style[n]=r(e)};if(Array.isArray(n)){var e=n.length;return function(i){var o=r(i);if(null==o)for(var u=0;u<e;u++)t[u].removeAttribute(n);else for(var a=0;a<e;a++)t[a].setAttribute(n,o)}}return function(e){var i=r(e);null==i?t.removeAttribute(n):t.setAttribute(n,i)}}(n,e,s,a):null}function tt(t,n,e,i){if(!i||"object"!==r(i))return null;var o=null,u=null;return Array.isArray(i)?u=function(t){if(!t||!t.length)return null;for(var n=0;n<t.length;n++)t[n].e&&(t[n].e=J(t[n].e));return t.sort(W)}(i):(u=i.keys,o=i.data||null),u?X(t,n,e,u,o):null}function nt(t,n,r){if(!r)return null;var e=[];for(var i in r)if(r.hasOwnProperty(i)){var o=tt(t,n,i,r[i]);o&&e.push(o)}return e.length?e:null}function rt(t,n){if(!n.duration||n.duration<0)return null;var r=function(t,n){if(!n)return null;var r=[];if(Array.isArray(n))for(var e=n.length,i=0;i<e;i++){var o=n[i];if(2===o.length){var u=null;if("string"==typeof o[0])u=t.getElementById(o[0]);else if(Array.isArray(o[0])){u=[];for(var a=0;a<o[0].length;a++)if("string"==typeof o[0][a]){var l=t.getElementById(o[0][a]);l&&u.push(l)}u=u.length?1===u.length?u[0]:new $(u):null}if(u){var f=nt(t,u,o[1]);f&&(r=r.concat(f))}}}else for(var s in n)if(n.hasOwnProperty(s)){var c=t.getElementById(s);if(c){var h=nt(t,c,n[s]);h&&(r=r.concat(h))}}return r.length?r:null}(t,n.elements);return r?function(t,n){var r=arguments.length>2&&void 0!==arguments[2]?arguments[2]:1/0,e=arguments.length>3&&void 0!==arguments[3]?arguments[3]:1,i=arguments.length>4&&void 0!==arguments[4]&&arguments[4],o=arguments.length>5&&void 0!==arguments[5]?arguments[5]:1,u=t.length,a=e>0?n:0;i&&r%2==0&&(a=n-a);var l=null;return function(f,s){var c=f%n,h=1+(f-c)/n;s*=e,i&&h%2==0&&(s=-s);var v=!1;if(h>r)c=a,v=!0,-1===o&&(c=e>0?0:n);else if(s<0&&(c=n-c),c===l)return!1;l=c;for(var y=0;y<u;y++)t[y](c);return v}}(r,n.duration,n.iterations||1/0,n.direction||1,!!n.alternate,n.fill||1):null}function et(t){return+("0x"+(t.replace(/[^0-9a-fA-F]+/g,"")||27))}function it(t,n,r){return!t||!r||n>t.length?t:t.substring(0,n)+it(t.substring(n+1),r,r)}function ot(t){var n=arguments.length>1&&void 0!==arguments[1]?arguments[1]:27;return!t||t%n?t%n:ot(t/n,n)}function ut(t,n,r){if(t&&t.length){var e=et(r),i=et(n),o=ot(e)+5,u=it(t,ot(e,5),o);return u=u.replace(/\x7c$/g,"==").replace(/\x2f$/g,"="),u=function(t,n,r){var e=+("0x"+t.substring(0,4));t=t.substring(4);for(var i=n%e+r%27,o=[],u=0;u<t.length;u+=2)if("|"!==t[u]){var a=+("0x"+t[u]+t[u+1])-i;o.push(a)}else{var l=+("0x"+t.substring(u+1,u+1+4))-i;u+=3,o.push(l)}return String.fromCharCode.apply(String,o)}(u=(u=atob(u)).replace(/[\x41-\x5A]/g,""),i,e),u=JSON.parse(u)}}Number.isInteger||(Number.isInteger=function(t){return"number"==typeof t&&isFinite(t)&&Math.floor(t)===t}),Number.EPSILON||(Number.EPSILON=2220446049250313e-31);var at=function(){function t(n,r){var i=arguments.length>2&&void 0!==arguments[2]?arguments[2]:{};e(this,t),this._id=0,this._running=!1,this._rollingBack=!1,this._animations=n,this.duration=r.duration,this.alternate=r.alternate,this.fill=r.fill,this.iterations=r.iterations,this.direction=i.direction||1,this.speed=i.speed||1,this.fps=i.fps||100,this.offset=i.offset||0,this.rollbackStartOffset=0}return o(t,[{key:"_rollback",value:function(){var t=this,n=1/0,r=null;this.rollbackStartOffset=this.offset,this._rollingBack||(this._rollingBack=!0,this._running=!0);this._id=window.requestAnimationFrame((function e(i){if(t._rollingBack){null==r&&(r=i);var o=i-r,u=t.rollbackStartOffset-o,a=Math.round(u*t.speed);if(a>t.duration&&n!=1/0){var l=!!t.alternate&&a/t.duration%2>1,f=a%t.duration;a=(f+=l?t.duration:0)||t.duration}var s=t.fps?1e3/t.fps:0,c=Math.max(0,a);if(c<n-s){t.offset=c,n=c;for(var h=t._animations,v=h.length,y=0;y<v;y++)h[y](c,t.direction)}var g=!1;if(t.iterations>0&&-1===t.fill){var d=t.iterations*t.duration,p=d==a;a=p?0:a,t.offset=p?0:t.offset,g=a>d}a>0&&t.offset>=a&&!g?t._id=window.requestAnimationFrame(e):t.stop()}}))}},{key:"_start",value:function(){var t=this,n=arguments.length>0&&void 0!==arguments[0]?arguments[0]:0,r=-1/0,e=null,i={},o=function o(u){t._running=!0,null==e&&(e=u);var a=Math.round((u-e+n)*t.speed),l=t.fps?1e3/t.fps:0;if(a>r+l&&!t._rollingBack){t.offset=a,r=a;for(var f=t._animations,s=f.length,c=0,h=0;h<s;h++)i[h]?c++:(i[h]=f[h](a,t.direction),i[h]&&c++);if(c===s)return void t._stop()}t._id=window.requestAnimationFrame(o)};this._id=window.requestAnimationFrame(o)}},{key:"_stop",value:function(){this._id&&window.cancelAnimationFrame(this._id),this._running=!1,this._rollingBack=!1}},{key:"play",value:function(){!this._rollingBack&&this._running||(this._rollingBack=!1,this.rollbackStartOffset>this.duration&&(this.offset=this.rollbackStartOffset-(this.rollbackStartOffset-this.offset)%this.duration,this.rollbackStartOffset=0),this._start(this.offset))}},{key:"stop",value:function(){this._stop(),this.offset=0,this.rollbackStartOffset=0;var t=this.direction,n=this._animations;window.requestAnimationFrame((function(){for(var r=0;r<n.length;r++)n[r](0,t)}))}},{key:"reachedToEnd",value:function(){return this.iterations>0&&this.offset>=this.iterations*this.duration}},{key:"restart",value:function(){this._stop(),this.offset=0,this._start()}},{key:"pause",value:function(){this._stop()}},{key:"reverse",value:function(){this.direction=-this.direction}}],[{key:"build",value:function(r,e){return delete r.animationSettings,r.options=ut(r.options,r.root,"5c7f360c"),r.animations.map((function(t){var e=ut(t.s,r.root,"5c7f360c");for(var i in delete t.s,r.animationSettings||(r.animationSettings=n({},e)),e)e.hasOwnProperty(i)&&(t[i]=e[i])})),(r=function(t,n){if(Y=n,!t||!t.root||!Array.isArray(t.animations))return null;for(var r=document.getElementsByTagName("svg"),e=!1,i=0;i<r.length;i++)if(r[i].id===t.root&&!r[i].svgatorAnimation){(e=r[i]).svgatorAnimation=!0;break}if(!e)return null;var o=t.animations.map((function(t){return rt(e,t)})).filter((function(t){return!!t}));return o.length?{element:e,animations:o,animationSettings:t.animationSettings,options:t.options||void 0}:null}(r,e))?{el:r.element,options:r.options||{},player:new t(r.animations,r.animationSettings,r.options)}:null}},{key:"push",value:function(t){return this.build(t)}},{key:"init",value:function(){var t=this,n=window.__SVGATOR_PLAYER__&&window.__SVGATOR_PLAYER__["5c7f360c"];Array.isArray(n)&&n.splice(0).forEach((function(n){return t.build(n)}))}}]),t}();function lt(t){return d(t)+""}function ft(t){var n=arguments.length>1&&void 0!==arguments[1]?arguments[1]:" ";return t&&t.length?t.map(lt).join(n):""}function st(t){if(!t)return"transparent";if(null==t.a||t.a>=1){var n=function(t){return 1===(t=parseInt(t).toString(16)).length?"0"+t:t},r=function(t){return t.charAt(0)===t.charAt(1)},e=n(t.r),i=n(t.g),o=n(t.b);return r(e)&&r(i)&&r(o)&&(e=e.charAt(0),i=i.charAt(0),o=o.charAt(0)),"#"+e+i+o}return"rgba("+t.r+","+t.g+","+t.b+","+t.a+")"}function ct(t){return t?"url(#"+t+")":"none"}!function(){for(var t=0,n=["ms","moz","webkit","o"],r=0;r<n.length&&!window.requestAnimationFrame;++r)window.requestAnimationFrame=window[n[r]+"RequestAnimationFrame"],window.cancelAnimationFrame=window[n[r]+"CancelAnimationFrame"]||window[n[r]+"CancelRequestAnimationFrame"];window.requestAnimationFrame||(window.requestAnimationFrame=function(n){var r=Date.now(),e=Math.max(0,16-(r-t)),i=window.setTimeout((function(){n(r+e)}),e);return t=r+e,i},window.cancelAnimationFrame=window.clearTimeout)}();var ht={f:null,i:function(t,n,r){return 0===t?n:1===t?r:{x:q(t,n.x,r.x),y:q(t,n.y,r.y)}},u:function(t,n){return function(r){var e=n(r);t.setAttribute("rx",lt(e.x)),t.setAttribute("ry",lt(e.y))}}},vt={f:null,i:function(t,n,r){return 0===t?n:1===t?r:{width:q(t,n.width,r.width),height:q(t,n.height,r.height)}},u:function(t,n){return function(r){var e=n(r);t.setAttribute("width",lt(e.width)),t.setAttribute("height",lt(e.height))}}};Object.freeze({M:2,L:2,Z:0,H:1,V:1,C:6,Q:4,T:2,S:4,A:7});var yt={},gt=null;function dt(t){var n=function(){if(gt)return gt;if("object"!==("undefined"==typeof document?"undefined":r(document))||!document.createElementNS)return{};var t=document.createElementNS("http://www.w3.org/2000/svg","svg");return t&&t.style?(t.style.position="absolute",t.style.opacity="0.01",t.style.zIndex="-9999",t.style.left="-9999px",t.style.width="1px",t.style.height="1px",gt={svg:t}):{}}().svg;if(!n)return function(t){return null};var e=document.createElementNS(n.namespaceURI,"path");e.setAttributeNS(null,"d",t),e.setAttributeNS(null,"fill","none"),e.setAttributeNS(null,"stroke","none"),n.appendChild(e);var i=e.getTotalLength();return function(t){var n=e.getPointAtLength(i*t);return{x:n.x,y:n.y}}}function pt(t){return yt[t]?yt[t]:yt[t]=dt(t)}function mt(t,n,r,e){if(!t||!e)return!1;var i=["M",t.x,t.y];if(n&&r&&(i.push("C"),i.push(n.x),i.push(n.y),i.push(r.x),i.push(r.y)),n?!r:r){var o=n||r;i.push("Q"),i.push(o.x),i.push(o.y)}return n||r||i.push("L"),i.push(e.x),i.push(e.y),i.join(" ")}function bt(t,n,r,e){var i=arguments.length>4&&void 0!==arguments[4]?arguments[4]:1,o=mt(t,n,r,e),u=pt(o);try{return u(i)}catch(t){return null}}function wt(t,n,r,e){var i=1-e;return i*i*t+2*i*e*n+e*e*r}function At(t,n,r,e){return 2*(1-e)*(n-t)+2*e*(r-n)}function xt(t,n,r,e){var i=arguments.length>4&&void 0!==arguments[4]&&arguments[4],o=bt(t,n,null,r,e);return o||(o={x:wt(t.x,n.x,r.x,e),y:wt(t.y,n.y,r.y,e)}),i&&(o.a=kt(t,n,r,e)),o}function kt(t,n,r,e){return Math.atan2(At(t.y,n.y,r.y,e),At(t.x,n.x,r.x,e))}function St(t,n,r,e,i){var o=i*i;return i*o*(e-t+3*(n-r))+3*o*(t+r-2*n)+3*i*(n-t)+t}function _t(t,n,r,e,i){var o=1-i;return 3*(o*o*(n-t)+2*o*i*(r-n)+i*i*(e-r))}function Ot(t,n,r,e,i){var o=arguments.length>5&&void 0!==arguments[5]&&arguments[5],u=bt(t,n,r,e,i);return u||(u={x:St(t.x,n.x,r.x,e.x,i),y:St(t.y,n.y,r.y,e.y,i)}),o&&(u.a=jt(t,n,r,e,i)),u}function jt(t,n,r,e,i){return Math.atan2(_t(t.y,n.y,r.y,e.y,i),_t(t.x,n.x,r.x,e.x,i))}function Mt(t,n,r){return t+(n-t)*r}function Pt(t,n,r){var e=arguments.length>3&&void 0!==arguments[3]&&arguments[3],i={x:Mt(t.x,n.x,r),y:Mt(t.y,n.y,r)};return e&&(i.a=Et(t,n)),i}function Et(t,n){return Math.atan2(n.y-t.y,n.x-t.x)}function It(t,n,r){var e=arguments.length>3&&void 0!==arguments[3]&&arguments[3];if(Ft(n)){if(Nt(r))return xt(n,r.start,r,t,e)}else if(Ft(r)){if(n.end)return xt(n,n.end,r,t,e)}else{if(n.end)return r.start?Ot(n,n.end,r.start,r,t,e):xt(n,n.end,r,t,e);if(r.start)return xt(n,r.start,r,t,e)}return Pt(n,r,t,e)}function Rt(t,n,r){var e=It(t,n,r,!0);return e.a=function(t){return arguments.length>1&&void 0!==arguments[1]&&arguments[1]?t+Math.PI:t}(e.a)/m,e}function Ft(t){return!t.type||"corner"===t.type}function Nt(t){return null!=t.start&&!Ft(t)}var Tt=new N;var Bt={f:lt,i:B},qt={f:lt,i:L};function Lt(t,n,r){return t.map((function(t){return function(t,n,r){var e=t.v;if(!e||"g"!==e.t||e.s||!e.v||!e.r)return t;var i=r.getElementById(e.r),o=i&&i.querySelectorAll("stop")||[];return e.s=e.v.map((function(t,n){var r=o[n]&&o[n].getAttribute("offset");return{c:t,o:r=d(parseInt(r)/100)}})),delete e.v,t}(t,0,r)}))}var Ct={gt:"gradientTransform",c:{x:"cx",y:"cy"},rd:"r",f:{x:"x1",y:"y1"},to:{x:"x2",y:"y2"}};function Dt(t,n,e,i,o,u,a,l){return Lt(t,0,l),n=function(t,n,r){for(var e,i,o,u=t.length-1,a={},l=0;l<=u;l++)(e=t[l]).e&&(e.e=n(e.e)),e.v&&"g"===(i=e.v).t&&i.r&&(o=r.getElementById(i.r))&&(a[i.r]={e:o,s:o.querySelectorAll("stop")});return a}(t,i,l),function(i){var o=e(i,t,zt);if(!o)return"none";if("c"===o.t)return st(o.v);if("g"===o.t){if(!n[o.r])return ct(o.r);var u=n[o.r];return function(t,n){for(var r=t.s,e=r.length;e<n.length;e++){var i=r[r.length-1].cloneNode();i.id=Yt(i.id),t.e.appendChild(i),r=t.s=t.e.querySelectorAll("stop")}for(var o=0,u=r.length,a=n.length-1;o<u;o++)r[o].setAttribute("stop-color",st(n[Math.min(o,a)].c)),r[o].setAttribute("offset",n[Math.min(o,a)].o)}(u,o.s),Object.keys(Ct).forEach((function(t){if(void 0!==o[t])if("object"!==r(Ct[t])){var n,e="gt"===t?(n=o[t],Array.isArray(n)?"matrix("+n.join(" ")+")":""):o[t],i=Ct[t];u.e.setAttribute(i,e)}else Object.keys(Ct[t]).forEach((function(n){if(void 0!==o[t][n]){var r=o[t][n],e=Ct[t][n];u.e.setAttribute(e,r)}}))})),ct(o.r)}return"none"}}function zt(t,r,e){if(0===t)return r;if(1===t)return e;if(r&&e){var i=r.t;if(i===e.t)switch(r.t){case"c":return{t:i,v:z(t,r.v,e.v)};case"g":if(r.r===e.r){var o={t:i,s:Vt(t,r.s,e.s),r:r.r};return r.gt&&e.gt&&(o.gt=function(t,n,r){var e=n.length;if(e!==r.length)return T(t,n,r);for(var i=new Array(e),o=0;o<e;o++)i[o]=B(t,n[o],r[o]);return i}(t,r.gt,e.gt)),r.c?(o.c=C(t,r.c,e.c),o.rd=q(t,r.rd,e.rd)):r.f&&(o.f=C(t,r.f,e.f),o.to=C(t,r.to,e.to)),o}}if("c"===r.t&&"g"===e.t||"c"===e.t&&"g"===r.t){var u="c"===r.t?r:e,a="g"===r.t?n({},r):n({},e),l=a.s.map((function(t){return{c:u.v,o:t.o}}));return a.s="c"===r.t?Vt(t,l,a.s):Vt(t,a.s,l),a}}return T(t,r,e)}function Vt(t,n,r){if(n.length===r.length)return n.map((function(n,e){return Gt(t,n,r[e])}));for(var e=Math.max(n.length,r.length),i=[],o=0;o<e;o++){var u=Gt(t,n[Math.min(o,n.length-1)],r[Math.min(o,r.length-1)]);i.push(u)}return i}function Gt(t,n,r){return{o:L(t,n.o,r.o||0),c:z(t,n.c,r.c||{})}}function Yt(t){return t.replace(/-fill-([0-9]+)$/,(function(t,n){return"-fill-"+(+n+1)}))}var $t={fill:Dt,"fill-opacity":qt,stroke:Dt,"stroke-opacity":qt,"stroke-width":Bt,"stroke-dashoffset":{f:lt,i:B},"stroke-dasharray":{f:function(t){var n=arguments.length>1&&void 0!==arguments[1]?arguments[1]:" ";return t&&t.length>0&&(t=t.map((function(t){return d(t,4)}))),ft(t,n)},i:function(t,n,r){var e,i,o,u=n.length,a=r.length;if(u!==a)if(0===u)n=V(u=a,0);else if(0===a)a=u,r=V(u,0);else{var l=(o=(e=u)*(i=a)/function(t,n){for(var r;n;)r=n,n=t%n,t=r;return t||1}(e,i))<0?-o:o;n=G(n,Math.floor(l/u)),r=G(r,Math.floor(l/a)),u=a=l}for(var f=[],s=0;s<u;s++)f.push(d(q(t,n[s],r[s])));return f}},opacity:qt,transform:function(t,n,e,i){if(!(t=function(t,n){if(!t||"object"!==r(t))return null;var e=!1;for(var i in t)t.hasOwnProperty(i)&&(t[i]&&t[i].length?(t[i].forEach((function(t){t.e&&(t.e=n(t.e))})),e=!0):delete t[i]);return e?t:null}(t,i)))return null;var o=function(r,i,o){var u=arguments.length>3&&void 0!==arguments[3]?arguments[3]:null;return t[r]?e(i,t[r],o):n&&n[r]?n[r]:u};return n&&n.a&&t.o?function(n){var r=e(n,t.o,Rt);return Tt.recomposeSelf(r,o("r",n,B,0)+r.a,o("k",n,C),o("s",n,C),o("t",n,C)).toString()}:function(t){return Tt.recomposeSelf(o("o",t,It,null),o("r",t,B,0),o("k",t,C),o("s",t,C),o("t",t,C)).toString()}},r:Bt,"#size":vt,"#radius":ht,_:function(t,n){if(Array.isArray(t))for(var r=0;r<t.length;r++)this[t[r]]=n;else this[t]=n}},Ut=function(t){!function(t,n){if("function"!=typeof n&&null!==n)throw new TypeError("Super expression must either be null or a function");t.prototype=Object.create(n&&n.prototype,{constructor:{value:t,writable:!0,configurable:!0}}),n&&l(t,n)}(u,t);var n,r,i=(n=u,r=f(),function(){var t,e=a(n);if(r){var i=a(this).constructor;t=Reflect.construct(e,arguments,i)}else t=e.apply(this,arguments);return c(this,t)});function u(){return e(this,u),i.apply(this,arguments)}return o(u,null,[{key:"build",value:function(t){var n=h(a(u),"build",this).call(this,t,$t);if(!n)return null;n.el,n.options,function(t,n,r){t.play()}(n.player)}}]),u}(at);return Ut.init(),Ut}));
(function(s,i,o,w){w[o]=w[o]||{};w[o][s]=w[o][s]||[];w[o][s].push(i);})('5c7f360c',{"root":"eXrPpOSicAk1","animations":[{"elements":{"eXrPpOSicAk18":{"transform":{"data":{"o":{"x":360.695823,"y":1354.403721,"type":"corner"},"t":{"x":-360.695816,"y":-1354.403741}},"keys":{"r":[{"t":0,"v":0},{"t":1000,"v":-53.190244},{"t":1500,"v":0},{"t":2000,"v":-53.190244},{"t":3000,"v":0}]}}},"eXrPpOSicAk20":{"transform":{"data":{"o":{"x":1462.904854,"y":131.405762,"type":"corner"},"t":{"x":-1462.904849,"y":-131.405762}},"keys":{"r":[{"t":0,"v":0},{"t":1000,"v":70},{"t":1500,"v":0},{"t":2000,"v":70},{"t":3000,"v":0}]}}},"eXrPpOSicAk22":{"transform":{"data":{"o":{"x":913.435,"y":1369.02,"type":"corner"},"t":{"x":-913.435,"y":-1369.019998}},"keys":{"s":[{"t":0,"v":{"x":1,"y":0.139067}},{"t":1000,"v":{"x":1,"y":1}},{"t":1700,"v":{"x":1,"y":0.661364}},{"t":2500,"v":{"x":1,"y":0.899343}},{"t":3000,"v":{"x":1,"y":0.139067}}]}}},"eXrPpOSicAk85":{"transform":{"data":{"o":{"x":1615.96,"y":1684.28,"type":"corner"},"t":{"x":-1615.96,"y":-1684.28}},"keys":{"s":[{"t":0,"v":{"x":1,"y":0.253966}},{"t":500,"v":{"x":1,"y":0.70559}},{"t":1500,"v":{"x":1,"y":0.407142}},{"t":2300,"v":{"x":1,"y":0.900137}},{"t":3000,"v":{"x":1,"y":0.253966}}]}}},"eXrPpOSicAk87":{"transform":{"data":{"o":{"x":1362.5727,"y":1684.28,"type":"corner"},"t":{"x":-1362.572691,"y":-1684.28}},"keys":{"s":[{"t":0,"v":{"x":1,"y":0.654891}},{"t":500,"v":{"x":1,"y":0.940938}},{"t":1100,"v":{"x":1,"y":0.198845}},{"t":2400,"v":{"x":1,"y":1.021005}},{"t":3000,"v":{"x":1,"y":0.654891}}]}}},"eXrPpOSicAk89":{"transform":{"data":{"o":{"x":126.32,"y":1684.28,"type":"corner"},"t":{"x":-126.32,"y":-1684.28}},"keys":{"s":[{"t":0,"v":{"x":1,"y":0.105757}},{"t":500,"v":{"x":1,"y":1.45202}},{"t":1000,"v":{"x":1,"y":0.892544}},{"t":1500,"v":{"x":1,"y":1.491369}},{"t":2000,"v":{"x":1,"y":0.333048}},{"t":2500,"v":{"x":1,"y":0.966767}},{"t":3000,"v":{"x":1,"y":0.105757}}]}}},"eXrPpOSicAk91":{"transform":{"data":{"o":{"x":382.17,"y":1684.28,"type":"corner"},"t":{"x":-382.17,"y":-1684.28}},"keys":{"s":[{"t":0,"v":{"x":1,"y":1}},{"t":1000,"v":{"x":1,"y":0.383617}},{"t":2000,"v":{"x":1,"y":1.530108}},{"t":3000,"v":{"x":1,"y":1}}]}}},"eXrPpOSicAk93":{"transform":{"data":{"o":{"x":1617.990051,"y":491.029984,"type":"corner"},"t":{"x":-1617.990051,"y":-491.029984}},"keys":{"s":[{"t":0,"v":{"x":0,"y":0}},{"t":800,"v":{"x":0,"y":0}},{"t":1000,"v":{"x":1,"y":1}},{"t":1500,"v":{"x":1,"y":1}},{"t":3000,"v":{"x":0,"y":0}}]}}},"eXrPpOSicAk96":{"transform":{"data":{"o":{"x":365.219986,"y":1119.2901,"type":"corner"},"t":{"x":-365.219986,"y":-1119.2901}},"keys":{"s":[{"t":0,"v":{"x":0,"y":0}},{"t":1200,"v":{"x":0,"y":0}},{"t":1400,"v":{"x":1,"y":1}},{"t":2000,"v":{"x":1,"y":1}},{"t":3000,"v":{"x":0,"y":0}}]}}},"eXrPpOSicAk99":{"transform":{"data":{"o":{"x":622.64,"y":1684.28,"type":"corner"},"t":{"x":-622.64,"y":-1684.28}},"keys":{"s":[{"t":0,"v":{"x":1,"y":1}},{"t":700,"v":{"x":1,"y":0.440365}},{"t":1300,"v":{"x":1,"y":1.140428}},{"t":1700,"v":{"x":1,"y":0.233429}},{"t":2300,"v":{"x":1,"y":0.90374}},{"t":2600,"v":{"x":1,"y":0.113792}},{"t":3000,"v":{"x":1,"y":1}}]}}}},"s":"MQDA1M2NkNzRiNmM3U2UM0YjNjNmJiYzFjMDcF0OGM4NVU4MjgyODI3GZTc0YjZiYmM0YjdiNOWM2YmJjMWMwNzQ4YzSgzN2U3NGJiYzZiN2MT0YjNjNmJiYzFjMGM1TNzQ4YzgyN2U3NGI4YUmJiZWJlNzQ4Y0c4MzOdlNzRiM2JlYzZiN2MS0YzBiM2M2Yjc3NDhjSYjhiM2JlYzViNzdlNNzRjNWMyYjdiN2I2NzHRMOGM4M09jZg|"}],"options":"MLDAxMDg4MmY4MEg4MTKZlN2Y4MTJmNDcyZjcE5QjdjTTZlNzFTMmY4OYQ|"},'__SVGATOR_PLAYER__',window)]]></script></svg>